<svg id="Layer_1" data-name="Layer 1" xmlns="http://www.w3.org/2000/svg" width="29.16mm" height="16.77mm" viewBox="0 0 82.66 47.52">
  <title>1</title>
  <g>
    <path d="M86.19,37.49c-3.84-1.59-10.45-3-11.42-7.89-.68-3.46,2.06-6.69,1.7-10-.39-3.56-4.42-3.64-7.19-3.53s-5.36.78-8,.61c-4.49-.27-5.75-3.51-8.76-6a11.71,11.71,0,0,0-5.8-2.49C45.43,8,44,8.21,42.8,7.91c-3.11-.8-3.35-3.49-3.45-6.31,0-1-1.53-1-1.5,0a16.79,16.79,0,0,0,2,7.47.73.73,0,0,0,.65.37c4.5-.11,8.85,0,12.15,3.51,1.43,1.5,2.42,3.26,4.32,4.25,4.49,2.33,9.21-.46,13.8.37,7,1.28.45,11.51,3.12,15.63,2,3.16,8.63,4.37,11.93,5.74.89.37,1.28-1.08.4-1.45Z" transform="translate(-17.11 0.36)"/>
    <path d="M54.23.32c6.39,2.73,6.62,8.46,6.48,14.52-.07,2.92-.51,5.87,2.83,6.8,2.57.72,5.39-.26,8.09.37,2.53.59,4.87,1.83,7.34,2.61,6.51,2.05,13.63,2.65,20.34,3.81.47.09.67-.64.19-.72C93,26.58,86.2,25.94,79.86,24.12c-2.51-.72-4.84-1.94-7.35-2.64-2.18-.61-4.83.13-6.8-.46-2.41-.72-4-3.46-4.27-5.58a27.92,27.92,0,0,1,.07-3A22.32,22.32,0,0,0,61,6.53C60,3.08,57.83,1.05,54.61-.32c-.44-.19-.82.45-.38.64Z" transform="translate(-17.11 0.36)"/>
    <path d="M17.47,3.7l5.24,3.53c.5,1,.95,2.09,1.35,3.17.28.69.52,1.4.84,2.07a12.85,12.85,0,0,0,2.78,3.87,18.94,18.94,0,0,0,8.47,4.19c10.51,2.67,21.32,1,26.54,12.66,3.09,6.93,6.62,12.43,14.69,13.73,8.54,1.39,16.25-3.34,21.44-9.77.3-.37-.23-.91-.53-.53C91.35,45.21,78,50.75,68.72,42c-6-5.7-5.6-14.87-14-18.54C47.3,20.24,38.53,21.89,31.34,18c-4.81-2.61-5.47-6.81-8-11.13A6.94,6.94,0,0,0,17.47,3c-.48,0-.48.72,0,.75Z" transform="translate(-17.11 0.36)"/>
    <path d="M28.62,3.09c4.54.62,7.15,4.52,9.34,8.19,2.85,4.77,2.14,7.77,1.66,12.92s.93,9.24,5.4,12.24c6.22,4.18,14.93,4.29,22.1,5.44,3.43.55,7.2,1.58,10.7,1.41,3.86-.18,9.55-4.53,12.57-.35.56.78,1.86,0,1.3-.75-3.87-5.36-10.34-.23-15.41-.44-5.49-.22-11.19-1.7-16.61-2.58-4.48-.72-9.39-1.19-13.33-3.64-9.15-5.7-2.22-14.57-5.66-22.42C38.56,8.28,34.6,2.41,29,1.64c-.94-.13-1.35,1.32-.4,1.45Z" transform="translate(-17.11 0.36)"/>
  </g>
</svg>
