<svg id="Layer_1" data-name="Layer 1" xmlns="http://www.w3.org/2000/svg" width="35.82mm" height="51.78mm" viewBox="0 0 101.54 146.79">
  <title>2</title>
  <g>
    <path d="M35.68,94.49c5.17,3.15,4.13,8,5.69,13,.86,2.78,2.71,5.52,5.78,6.07,1.65.3,3.13-.28,4.7-.65,3.43-.79,5.54-1.25,8.61,1.21a25.64,25.64,0,0,1,2.1,2.07c2.34,2.42,5.18,5.6,8.93,5.33,1.89-.14,3-1.36,4.66-2,4.36-1.66,6,2.33,8.18,5.43a93.61,93.61,0,0,1,8.89,14.91c3.16,7,3.43,18.34,11.27,22.12.87.42,1.63-.88.76-1.3-5-2.42-6.19-8-7.59-12.91a63.51,63.51,0,0,0-5.91-14.05A137.81,137.81,0,0,0,82.59,120c-1.51-2-2.7-3.37-5.35-2.68a16.4,16.4,0,0,0-2.44,1.33,10,10,0,0,1-7,.36c-2.44-.95-4.33-4.23-6.3-5.88a9.06,9.06,0,0,0-8.64-2c-2.88.69-2.54,1-6-.41-3.28-1.35-3.59-1.56-4.37-4.67-.47-1.89-.5-3.87-.94-5.76a10.41,10.41,0,0,0-5.15-7c-.82-.5-1.58.79-.75,1.3Z" transform="translate(-34.32 -15.73)"/>
    <path d="M131,151.73c-.64-9.24-8.69-13.89-16.16-17.68-5-2.52-9.66-5.4-13.43-9.55-3.61-4-5.94-8.93-9.82-12.64A20.59,20.59,0,0,0,81,106.5c-2.91-.55-6.21-.55-8.89-2-3.49-1.85-3.75-5.23-5.69-8.18s-5.25-4.25-8.81-4.51c-7.22-.53-14.23.39-21.48-.77-.94-.16-1.35,1.29-.4,1.44A81.88,81.88,0,0,0,52,93.43c2.67-.1,5.49-.39,8.12.29,3.74,1,5.11,3.79,6.65,6.91,4.42,9,15.3,5.46,22.37,11.14,3.94,3.17,6.18,7.69,9.27,11.58a39,39,0,0,0,8.68,8c8.12,5.52,21.54,8.59,22.35,20.34.07,1,1.57,1,1.5,0Z" transform="translate(-34.32 -15.73)"/>
    <path d="M36.05,63.19A29.91,29.91,0,0,1,56.82,80.93c4.4,10.69,2.78,23.52,2.23,34.78-.2,4-1.11,8.91-.19,12.83.66,2.82,3.26,5.58,5.17,7.65,6,6.44,14,11.28,17,19.94.16.45.89.25.73-.2-2.75-7.9-9.49-12.65-15.24-18.3-4.24-4.18-7.1-8-7-14.12.13-6.5.65-13,.81-19.5.22-9.66,0-19.87-5.32-28.28A30.51,30.51,0,0,0,36.25,62.47c-.47-.11-.67.61-.2.72Z" transform="translate(-34.32 -15.73)"/>
    <path d="M34.55,18c8.93,14.56,12.29,31.29,17.09,47.46,1.7,5.75,3.62,11.76,7.52,16.46s9.18,5.93,15.09,7c7,1.22,14.35,2.65,19.89,7.35C100.29,101.41,104,110.13,108,117c3.61,6.06,6.84,11.76,12.72,15.84,3.07,2.14,6.77,3.87,9.29,6.71,3.46,3.89,2.67,9.31,2.83,14.13.06,1.92,3.06,1.93,3,0-.21-6.5.36-12.56-4.81-17.28a58,58,0,0,0-7.58-5.33c-4.49-3-7.28-6.49-10.09-11C105.85,107.9,100.51,93.37,86,88.49c-6.69-2.25-15.37-1.63-21.28-5.55-6.43-4.26-8.64-13-10.66-19.95-4.61-15.91-8.14-32.27-16.91-46.55-1-1.64-3.6-.14-2.59,1.51Z" transform="translate(-34.32 -15.73)"/>
    <path d="M36.24,117.54a21.26,21.26,0,0,1,11.44,8.89c2.69,4.33,2.79,8.61,3.19,13.51.48,5.78,3.8,9.37,9.81,9.31,4.35,0,8.47-1.94,12.74-2.58a36.3,36.3,0,0,1,13.5.53,38.14,38.14,0,0,1,22.73,15.16c.27.39.93,0,.65-.38C101.59,149.71,86,143.14,71.13,146.3c-6.74,1.44-15.52,5.21-19.08-3.44-1.63-3.94-.28-8.87-1.86-13a22,22,0,0,0-13.75-13c-.46-.15-.66.57-.2.72Z" transform="translate(-34.32 -15.73)"/>
  </g>
</svg>
