<svg id="Layer_1" data-name="Layer 1" xmlns="http://www.w3.org/2000/svg" width="64.8mm" height="47.6mm" viewBox="0 0 183.68 134.94">
  <title>6</title>
  <g style="fill: #fbf7f2">
    <path d="M30.58,35.73C39.17,33.48,49,31,57.26,35.67c7.2,4.12,12.47,12.46,16.05,19.73,6,12.1,7.2,26.05,21.69,31.06a24.75,24.75,0,0,0,8.83,1.35c4.83-.15,9-2.53,12.91,1.58,6,6.29,4.72,14.87,7.45,22.31,2.09,5.71,8.5,7.9,13.67,10a62.74,62.74,0,0,0,22.87,4.9c9.45.23,18.29.84,27,5a52,52,0,0,1,20.23,17.11c1.11,1.57,3.71.07,2.59-1.52a54.85,54.85,0,0,0-34.74-22.56c-8.69-1.59-17.6-.27-26.26-2.21A68.33,68.33,0,0,1,136.58,118c-5.23-2.35-9.36-4.45-10.3-10.7-1.09-7.16-2.59-13.94-7.2-19.78C114.27,81.38,109,85,102.4,84.82c-9.46-.33-16.83-6.42-20.33-15-3.07-7.48-5.13-15-9.5-21.89C68.43,41.4,63,34.31,55.47,31.52c-8.33-3.08-17.44-.85-25.69,1.32a1.5,1.5,0,0,0,.8,2.89Z" transform="translate(-27.12 -14.45)"/>
    <path d="M31.73,17.4A16.32,16.32,0,0,1,53.07,25c3.12,6.19,3.59,13.57,5.35,20.2C60,51,62,56.8,65.39,61.75a29.51,29.51,0,0,0,5.42,6c2.29,1.9,6.51,3.48,7.8,6.21,2.28,4.85-1.41,9.57-2.42,14.15a22.12,22.12,0,0,0-.27,8c.56,3.63,2,8.2,6.31,8.54,3.55.27,7.41-1,11-1.27,4.87-.34,10.2-.69,14.83.91,4.1,1.42,4.14,4.44,5.87,7.91a9.73,9.73,0,0,0,4.85,4.76c6.57,3,13.38-.54,20-1.09,9.75-.81,18.57,4.47,26.58,9.33.83.51,1.58-.79.76-1.29-6.34-3.85-13-7.88-20.43-9.18s-13.86,2.12-21.16,1.94c-6.22-.16-8.5-3.38-10.66-8.59-.76-1.84-1.57-3.65-3.29-4.81-2-1.34-4.66-1.34-6.95-1.47a82.14,82.14,0,0,0-14.2.42c-1.31.15-2.66.5-4,.54-5,.15-6.76-1.37-7.77-5.38-1.28-5.1.1-9.78,1.88-14.53,2-5.2,1.94-9.21-2.72-12.71-2.8-2.1-5.76-3.81-8.07-6.5A38.23,38.23,0,0,1,62.13,52c-2.41-6.39-3.51-13.08-5.06-19.7-1.43-6.12-3.87-12.25-9.58-15.54A18.09,18.09,0,0,0,31,16.11c-.89.38-.12,1.68.75,1.29Z" transform="translate(-27.12 -14.45)"/>
    <path d="M166,147.3a11.82,11.82,0,0,0-7.71-9.08c-5.42-1.8-10.53,1.48-15.69,2.63-8.15,1.81-20.25,2.68-23-7.2-2-7-2.48-14.14-4.89-21.06-1.66-4.75-3.37-10.34-7.92-13.1-5.68-3.45-13.84-4-20.27-4.85a174,174,0,0,0-22-1.51c-7.8-.08-16.33.08-22.89-4.78a20.13,20.13,0,0,1-7.47-12c-.9-4.13.06-7.78,0-11.88,0-3.81-2.49-7.94-6.79-6.44-.45.16-.25.89.2.73,7.57-2.65,5.14,13.42,5.57,16.23a23.31,23.31,0,0,0,2.28,7.19c2.92,5.74,8.22,9.22,14.39,10.63,7.7,1.75,15.87.91,23.7,1.35,9.41.52,19.55,1.42,28.6,4.24,6.34,2,8.7,6.1,11,12a88.1,88.1,0,0,1,4,13.38c1.15,5.41.81,13.22,5.93,16.74,4.68,3.22,12.18,2.38,17.42,1.58,3.73-.56,7.08-2.17,10.72-3.05,6.61-1.62,12.77,1.6,14.2,8.52.1.47.82.27.72-.2Z" transform="translate(-27.12 -14.45)"/>
  </g>
</svg>
