<svg id="Layer_1" data-name="Layer 1" xmlns="http://www.w3.org/2000/svg" width="27.01mm" height="63.87mm" viewBox="0 0 76.56 181.06">
  <title>4</title>
  <g style="fill: #3cf8fe">
    <g>
      <path d="M123.62,28.58A124.6,124.6,0,0,1,127,54.09a21.59,21.59,0,0,1-2.72,12.08A18.84,18.84,0,0,0,122,73.51a19.07,19.07,0,0,0,3.59,13.28c4.6,6.13,13.64,9.63,13.15,18.55-.06,1,1.44,1,1.5,0,.31-5.66-3.1-9.68-7.11-13.28-6.56-5.9-11.9-12.41-8.93-21.89,1-3.2,3.53-5.51,4.2-8.78s.15-6.89,0-10.09a127.85,127.85,0,0,0-3.33-23.12c-.22-.94-1.67-.54-1.45.4Z" transform="translate(-76.28 -4.32)"/>
      <path d="M138.94,90.9c-6.2,3.82-12.44,7.57-18.6,11.45-4.49,2.83-9.08,5.91-12.26,10.26a16.92,16.92,0,0,0-3.37,12.12,16.44,16.44,0,0,0,1.71,5.51c1,1.86,3.69,3.59,4.36,5.3,1.12,2.86-1,5.8-2.6,7.71a12.3,12.3,0,0,0-1.66,2.37,12.5,12.5,0,0,0-1.26,5.67c0,5.35,3,10.05,5.95,14.25,2.78,3.93,5.06,6.14,9.73,7.48a38.65,38.65,0,0,1,19.13,12.23c.31.37.84-.16.53-.53a39.32,39.32,0,0,0-11.24-9.21c-4.67-2.48-11.07-2.82-14.75-6.71-4.16-4.38-8.63-11.32-8.6-17.51,0-4,2.06-6.63,4.69-9.42.89-1,2-2,2.17-3.39.34-3.25-4.09-5.54-5.46-8-3.53-6.43-2.16-13.57,2.53-19,3.54-4.07,8.25-6.94,12.8-9.74q8.28-5.11,16.58-10.2a.38.38,0,0,0-.38-.65Z" transform="translate(-76.28 -4.32)"/>
    </g>
    <path d="M126.36,5.74c2.5,18.92-12.07,34.82-28.4,41.74-7.22,3.06-11.5,6.45-14.67,13.82-1.43,3.33-1.18,6.85-2,10.33-.86,3.66-2.4,7.13-2.9,10.88-.53,4,.09,8,.64,12q.52,3.87,1.29,7.7c.19,1,.47,1.91.61,2.87.59,4.2,0,5.2-1.82,8.39-2.3,4.07-5.21,10.79.45,13.82,5.31,2.84,8.23-3.77,11.24-6.64,4.42-4.21,10.69-1.31,15.16,1.26,5.19,3,9,6.22,11,12,2.91,8.45,5.51,16.12,11.1,23.3,6.34,8.16,15.59,12.84,22.27,20.56,1.27,1.46,3.38-.67,2.12-2.12-5.63-6.52-13.41-10.61-19.23-16.95-6.2-6.76-10-14.62-12.66-23.31-2.34-7.67-6.16-12.08-13.09-16.09-5-2.88-11.71-5.75-17.07-2.21-2.39,1.58-3.36,4.31-5.49,6.07-1.42,1.18-5.77,7.58-5.57-3.32a8.84,8.84,0,0,1,1.24-3c.89-1.71,2.12-3.22,2.87-5,1.52-3.64.51-6.73-.24-10.45C82.14,96,81,90.32,81.19,84.82,81.36,80.73,83,77.06,84,73.16c1.08-4.2.87-8.35,2.84-12.31,2.2-4.43,4.89-7.44,9.46-9.45a109.29,109.29,0,0,0,10.07-4.66c14-8,25.19-24.41,23-41-.25-1.88-3.25-1.91-3,0Z" transform="translate(-76.28 -4.32)"/>
  </g>
</svg>
