<svg id="Layer_1" data-name="Layer 1" xmlns="http://www.w3.org/2000/svg" width="40.55mm" height="36.68mm" viewBox="0 0 114.95 103.99">
  <title>4</title>
  <g style="fill: #fbf7f2">
    <path d="M21.77,15.27Q21.7,26,21.62,36.62c0,4.68-.16,9.19,3,13,7.29,8.66,20.21,9.15,30.5,9.76,6.38.39,14.34,1.58,18.22,7.39,3.31,5,1.41,11.76,5.21,16.49,3.09,3.84,9.71,4.75,14.12,6.28,5.45,1.9,15.85,3.53,17.76,9.93.55,1.84,3.45,1,2.89-.8-2.63-8.81-16.14-10.73-23.51-13.29C85.09,83.7,80.46,82.42,79.12,77c-.72-3-.61-6.06-1.72-8.94a16.29,16.29,0,0,0-7.72-8.29c-10.45-5.64-23.07-2-33.94-6.5-3.46-1.42-7.62-3.43-9.66-6.72-1.82-2.92-1.48-6.63-1.46-9.91q.06-10.68.15-21.35a1.5,1.5,0,0,0-3,0Z" transform="translate(-21.61 -13.82)"/>
    <path d="M136.33,116.54c-7.05-6.79-16.21-19.21-27.4-17.62-8.8,1.24-14.36,9.51-21.92,13.3-3.21,1.61-7.43,2.89-10.11-.52-2.25-2.85-.71-9.37-1.41-12.76-.88-4.29-5-6.4-8.77-8.1C61.45,88.47,56.15,88,50.45,88.19c-4.52.13-8.72,0-11.69-3.82-2.24-2.9-2.9-6.73-3.53-10.25-.16-1-1.61-.55-1.44.4.81,4.55,1.85,9.84,5.71,12.88,4.32,3.4,10,2.07,15,2.19a30.08,30.08,0,0,1,12.91,3.25c1.52.78,4,1.88,5,3.21,1.7,2.33,1.63,5.58,1.87,8.28.28,3.31,0,9.17,3.54,10.79,7.58,3.45,16.93-6.68,22.16-10.43,5.58-4,11.56-6,18-2.41s11.95,10.17,17.3,15.32c.7.67,1.76-.39,1.06-1.06Z" transform="translate(-21.61 -13.82)"/>
    <path d="M23.21,70.36c4.64,0,7.66,4.88,12.44,3.88,2.24-.47,3.89-2.19,5.78-3.34a18.94,18.94,0,0,1,9.9-2.72,18.52,18.52,0,0,1,9.92,2.76c1.73,1.11,3,3,4.87,3.84,4,1.84,7.83-.85,10.65-3.42.36-.33-.18-.85-.53-.53-1.78,1.62-4.59,4.15-7.18,3.78-1.92-.28-3.82-1.67-5.35-2.72a26.61,26.61,0,0,0-4.4-2.83A20.81,20.81,0,0,0,48.53,67.6c-4.53.59-6.9,2.93-10.77,4.93-5.9,3-9-3-14.55-2.92a.38.38,0,0,0,0,.75Z" transform="translate(-21.61 -13.82)"/>
  </g>
</svg>
