<svg height="512pt" viewBox="0 0 512 512" width="512pt" xmlns="http://www.w3.org/2000/svg"><g id="blog"><path d="m504.5 472.25c-4.144531 0-7.5 3.355469-7.5 7.5v17.25h-482v-261c0-4.144531-3.355469-7.5-7.5-7.5s-7.5 3.355469-7.5 7.5v268.5c0 4.144531 3.355469 7.5 7.5 7.5h497c4.144531 0 7.5-3.355469 7.5-7.5v-24.75c0-4.144531-3.355469-7.5-7.5-7.5zm0 0"/><path d="m504.5 105h-55.75c-4.144531 0-7.5 3.355469-7.5 7.5s3.355469 7.5 7.5 7.5h48.25v65h-203.5v-65h122.5c4.144531 0 7.5-3.355469 7.5-7.5s-3.355469-7.5-7.5-7.5h-122.5v-83.03125c0-12.113281-9.871094-21.96875-22-21.96875h-31c-12.132812 0-22 9.855469-22 21.96875v83.03125h-211c-4.144531 0-7.5 3.355469-7.5 7.5v91.125c0 4.144531 3.355469 7.5 7.5 7.5s7.5-3.355469 7.5-7.5v-3.625h203.5v44.5h-158.5c-4.144531 0-7.5 3.355469-7.5 7.5s3.355469 7.5 7.5 7.5h158.5v18.328125h-158.5c-4.144531 0-7.5 3.359375-7.5 7.5 0 4.144531 3.355469 7.5 7.5 7.5h158.5v18.34375h-158.5c-4.144531 0-7.5 3.355469-7.5 7.5 0 4.140625 3.355469 7.5 7.5 7.5h158.5v70.050781c0 4.832032 2.789062 9.015625 6.839844 11.054688-2.191406 10.910156-.707032 29.90625 20.636718 56.441406 2.4375 3.03125 6.089844 4.769531 10.023438 4.769531 3.929688 0 7.582031-1.738281 10.019531-4.769531 21.355469-26.535156 22.835938-45.527344 20.640625-56.4375 4.050782-2.042969 6.839844-6.226562 6.839844-11.058594v-70.050781h158.5c4.144531 0 7.5-3.359375 7.5-7.5 0-4.144531-3.355469-7.5-7.5-7.5h-158.5v-18.34375h158.5c4.144531 0 7.5-3.355469 7.5-7.5 0-4.140625-3.355469-7.5-7.5-7.5h-158.5v-18.328125h158.5c4.144531 0 7.5-3.355469 7.5-7.5s-3.355469-7.5-7.5-7.5h-158.5v-44.5h203.5v248.25c0 4.144531 3.355469 7.5 7.5 7.5s7.5-3.355469 7.5-7.5v-335.75c0-4.144531-3.355469-7.5-7.5-7.5zm-268.832031 288.609375h-2.167969v-14.9375h45v14.9375zm-2.167969-332.914063h45v14.941407h-45zm0 302.976563v-273.035156h45v273.035156zm7-348.671875h31c3.859375 0 7 3.128906 7 6.96875v23.730469h-45v-23.730469c0-3.839844 3.140625-6.96875 7-6.96875zm-225.5 170v-65h203.5v65zm241 267.207031c-18.203125-23.507812-17.277344-37.800781-15.59375-43.597656h8.09375v12.460937c0 4.140626 3.359375 7.5 7.5 7.5 4.144531 0 7.5-3.359374 7.5-7.5v-12.460937h8.140625c1.648437 5.675781 2.648437 19.984375-15.640625 43.597656zm0 0"/><path d="m159.925781 359.5c4.140625 0 7.5-3.355469 7.5-7.5s-3.359375-7.5-7.5-7.5h-99.925781c-4.144531 0-7.5 3.355469-7.5 7.5s3.355469 7.5 7.5 7.5zm0 0"/><path d="m53.5 129.5c-12.40625 0-22.5 10.09375-22.5 22.5s10.09375 22.5 22.5 22.5 22.5-10.09375 22.5-22.5-10.09375-22.5-22.5-22.5zm0 30c-4.136719 0-7.5-3.363281-7.5-7.5s3.363281-7.5 7.5-7.5 7.5 3.363281 7.5 7.5-3.363281 7.5-7.5 7.5zm0 0"/><path d="m113.5 129.5c-12.40625 0-22.5 10.09375-22.5 22.5s10.09375 22.5 22.5 22.5 22.5-10.09375 22.5-22.5-10.09375-22.5-22.5-22.5zm0 30c-4.136719 0-7.5-3.363281-7.5-7.5s3.363281-7.5 7.5-7.5 7.5 3.363281 7.5 7.5-3.363281 7.5-7.5 7.5zm0 0"/><path d="m173.5 129.5c-12.40625 0-22.5 10.09375-22.5 22.5s10.09375 22.5 22.5 22.5 22.5-10.09375 22.5-22.5-10.09375-22.5-22.5-22.5zm0 30c-4.136719 0-7.5-3.363281-7.5-7.5s3.363281-7.5 7.5-7.5 7.5 3.363281 7.5 7.5-3.363281 7.5-7.5 7.5zm0 0"/> </g></svg>