<svg id="Layer_1" data-name="Layer 1" xmlns="http://www.w3.org/2000/svg" width="56.01mm" height="33.26mm" viewBox="0 0 158.77 94.27">
  <defs>
    <style>
      .cls-1, .cls-2, .cls-4, .cls-5 {
        fill: none;
      }

      .cls-1, .cls-2, .cls-3, .cls-4, .cls-5 {
        stroke: #000;
        stroke-miterlimit: 10;
      }

      .cls-1 {
        stroke-width: 0.15px;
      }

      .cls-2 {
        stroke-width: 0.1px;
      }

      .cls-3 {
        fill: none;
      }

      .cls-4 {
        stroke-width: 1.2px;
      }

      .cls-5 {
        stroke-width: 0.5px;
      }
    </style>
  </defs>
  <title>broke_wallet</title>
  <ellipse class="cls-1" cx="113.89" cy="12.29" rx="1.43" ry="0.69"/>
  <line class="cls-1" x1="108.02" y1="0.3" x2="113.89" y2="11.6"/>
  <line class="cls-1" x1="114.95" y1="11.83" x2="124.05" y2="9.79"/>
  <line class="cls-1" x1="112.61" y1="12.59" x2="102.75" y2="14.84"/>
  <line class="cls-1" x1="114.61" y1="12.88" x2="124.57" y2="22.28"/>
  <line class="cls-1" x1="112.58" y1="12.02" x2="96.05" y2="0.75"/>
  <line class="cls-1" x1="113.53" y1="12.95" x2="111.65" y2="21.56"/>
  <path class="cls-2" d="M184.89,314.31s1.68.49,2.22-.75l-.42-.82a4.9,4.9,0,0,0,5.41,1.83s-2.57,1.49-1.68,3.48c0,0-2.43-1.24-3.27,0,0,0-.74-2-3.43-1.4,0,0,1.56-2.07.25-3" transform="translate(-73.99 -303.44)"/>
  <path class="cls-2" d="M183,313.05s2.62.53,3-1.66c0,0,4.9,3.45,9.12,2.52,0,0-4.29,2.4-3.37,5.38,0,0-4.63-1.06-5.14,1.29a4.39,4.39,0,0,0-5.27-3.29s3-2.63.85-4.82c0,0,2.72-.39,2.91-2.81,0,0,8.9,4.5,12,3.81,0,0-4.32,3-4.78,6.39,0,0-5.55-.15-6.07,2.22,0,0-2.71-5.4-6.89-4.47,0,0,2.77-2.68,1.86-5.78,0,0,3.21-1.29,2.7-4.36" transform="translate(-73.99 -303.44)"/>
  <path class="cls-1" d="M186.13,322.75c2.71-2.5,7.45-1.73,7.45-1.73-1-2,4.09-7.71,4.09-7.71-6.94-.86-14.15-6.67-14.15-6.67s-.87,3.59-3.94,4.06c0,0,1.08,5.91-2.24,7" transform="translate(-73.99 -303.44)"/>
  <path class="cls-1" d="M183,305.6s-2.27,4.27-5.63,3.57c0,0,2.12,5.37-1.38,8" transform="translate(-73.99 -303.44)"/>
  <path class="cls-1" d="M182.6,304.89s-4.2,4.25-6.64,3.33c0,0,1.56,6.89-1.8,8.75" transform="translate(-73.99 -303.44)"/>
  <g>
    <path d="M192,360.05v23.31a13.76,13.76,0,0,1-13.77,13.77H92.42a2.35,2.35,0,0,1,.1.58h85.72a14.36,14.36,0,0,0,14.35-14.35V359.8A2.36,2.36,0,0,1,192,360.05Z" transform="translate(-73.99 -303.44)"/>
    <path d="M74,328.65l.19,56a2.23,2.23,0,0,1,.58-.68l-.16-55.27c0-.51,0-1.33.06-1.84-.17,0-.48.26-.66.18C74,327.7,74,328.08,74,328.65Z" transform="translate(-73.99 -303.44)"/>
    <path d="M192,343a2.31,2.31,0,0,1,.58-.25h0a28.44,28.44,0,0,0-28.44-28.44H90.86c0,.19,0,.39.07.58h73.22A27.86,27.86,0,0,1,192,342.74Z" transform="translate(-73.99 -303.44)"/>
    <path d="M74.76,383.92a2,2,0,0,1,.58-.3l-.13-54.94v-1.47c-.19-.06-.42-.34-.61-.41-.06.5,0,1.34,0,1.85Z" transform="translate(-73.99 -303.44)"/>
    <path d="M191.43,360.13v23.23a13.21,13.21,0,0,1-13.19,13.2H92.15a2.48,2.48,0,0,1,.27.57h85.82A13.76,13.76,0,0,0,192,383.36V360.05A2.14,2.14,0,0,1,191.43,360.13Z" transform="translate(-73.99 -303.44)"/>
    <path d="M191.43,343.52A2.1,2.1,0,0,1,192,343v-.25a27.86,27.86,0,0,0-27.86-27.86H90.93c0,.19,0,.39,0,.58h73.18a27.28,27.28,0,0,1,27.28,27.28Z" transform="translate(-73.99 -303.44)"/>
    <path d="M90.36,314.88h.57c0-.19-.05-.39-.07-.58h-.59C90.3,314.49,90.34,314.69,90.36,314.88Z" transform="translate(-73.99 -303.44)"/>
    <path d="M90.4,315.46H91c0-.19,0-.39,0-.58h-.57C90.38,315.07,90.39,315.27,90.4,315.46Z" transform="translate(-73.99 -303.44)"/>
    <path d="M89.77,314.88h.59c0-.19-.06-.39-.09-.58h-.59C89.71,314.49,89.75,314.69,89.77,314.88Z" transform="translate(-73.99 -303.44)"/>
    <path d="M89.81,315.46h.59c0-.19,0-.39,0-.58h-.59C89.79,315.07,89.8,315.27,89.81,315.46Z" transform="translate(-73.99 -303.44)"/>
  </g>
  <path class="cls-3" d="M90.36,314.88c-4.31.1-5.94,1.8-8.71,3.35A3.87,3.87,0,0,1,78,318a2.49,2.49,0,0,1-1.22-1.9c-.28-1.92,1.91-7.06,4.19-9.72" transform="translate(-73.99 -303.44)"/>
  <g>
    <path d="M198.87,339.39a2,2,0,0,1,.61.27V317.79c0-7.91-6.81-14.35-15.19-14.35H89.21c-8.38,0-15.19,6.44-15.19,14.35l0,10.29h.62l0-10.29c0-7.6,6.53-13.77,14.58-13.77h95.08c8.05,0,14.58,6.17,14.58,13.77Z" transform="translate(-73.99 -303.44)"/>
    <path d="M199.48,368.18V353.39a2.15,2.15,0,0,1-.61.84v14.16A2.19,2.19,0,0,1,199.48,368.18Z" transform="translate(-73.99 -303.44)"/>
    <path d="M198.25,339.3a2.38,2.38,0,0,1,.62.09v-21.6c0-7.6-6.53-13.77-14.58-13.77H89.21c-8,0-14.58,6.17-14.58,13.77l0,10.29h.61l0-10.29c0-7.27,6.26-13.19,14-13.19h95.08c7.7,0,14,5.92,14,13.19Z" transform="translate(-73.99 -303.44)"/>
    <path d="M198.87,368.39V354.23a2,2,0,0,1-.62.35v14.29A2.29,2.29,0,0,1,198.87,368.39Z" transform="translate(-73.99 -303.44)"/>
  </g>
  <path class="cls-4" d="M198.93,356s-.09-8.15-.05-17.73c0,.11.43.44.51.52l.6.6,1.15,1.17c.7.7,1.39,1.44,2.11,2.12.54.5,3.22,4.63,3.84,5,3.62,2,5.44,1.69,8.95,1.86l6.52.32,4.75.23,1.2.06a3.1,3.1,0,0,1,2.63,2.08c.87,2,1.64,5.49.25,10.64a3.28,3.28,0,0,1-2.91,2.7l-3.68,0a34.5,34.5,0,0,1-6.69-.43,35.75,35.75,0,0,1-11.93-3.59,20.84,20.84,0,0,1-3.76-2.6C201.26,358,200.12,357,198.93,356Z" transform="translate(-73.99 -303.44)"/>
  <circle class="cls-5" cx="149.81" cy="54.31" r="2.51"/>
  <line class="cls-4" x1="118.02" y1="38.31" x2="118.02" y2="67.51"/>
  <path d="M151.36,315.19c3.07,1.23,3.44,1,4.55,5.14.2.78.2,1.54.43,2.31a9.35,9.35,0,0,0,3,4.52c1.62,1.31,3.53,1.67,5.32,2.65,2.89,1.59,4.68,4.25,6.41,7,2.14,3.34,4.17,6.57,7.7,8.59,2.69,1.54,5.76,2.22,8,4.5,2.8,2.83,3.77,6.95,4.7,10.68a.38.38,0,0,0,.73-.2c-1.17-4.68-2.53-9.63-6.72-12.49-3.16-2.15-6.78-2.82-9.58-5.59-2.18-2.17-3.55-5-5.28-7.56a18,18,0,0,0-4.41-4.82c-2.83-1.95-6.11-2.46-8.28-5.47-1.68-2.34-.12-5.26-1.53-7.31-1-1.51-3.25-2-4.84-2.65-.45-.18-.65.55-.2.73Z" transform="translate(-73.99 -303.44)"/>
  <path d="M89.92,314.69a5.34,5.34,0,0,0-4,3.37,8.3,8.3,0,0,0-.51,2.63c0,1,0,2,0,3,.08,1.86-.69,2.81-2.33,2.84-2.24,1.23-5.15.9-7.19,2.69-1.72,1.51-1.83,3.49-1.8,5.64a.38.38,0,0,0,.75,0,7.68,7.68,0,0,1,3.41-6,16.16,16.16,0,0,1,3.57-1.14c1.09-.31,2.91-.38,3.73-1.19a2.49,2.49,0,0,0,.54-1.26c1.12-3.61-1.87-8.39,4.05-9.79.47-.11.27-.83-.2-.72Z" transform="translate(-73.99 -303.44)"/>
  <path d="M80.68,306.31c-.25,1.27-1,2.27-1.07,3.58A6.16,6.16,0,0,0,80,313c1.08,2.2,3.63,2.73,5.82,3.08.48.08.68-.64.2-.72-2.13-.34-4.8-.8-5.54-3.21-.64-2.1.53-3.71.91-5.65.1-.48-.63-.68-.72-.2Z" transform="translate(-73.99 -303.44)"/>
  <path d="M79.11,309.52c-.27,1.56-1.07,3-1.37,4.51-.16.85-.43,2.4.09,3.21,1.08,1.72,5-.14,6.33-.71a.39.39,0,0,0,.14-.52c-.42-.65-1.24-.81-1.89-1.21s-3.34-2.36-2.73-3.13l-.64-.26-.19,5.48a.38.38,0,0,0,.75,0l.19-5.48c0-.31-.44-.53-.64-.27-.62.79-.07,1.53.49,2.21a9.15,9.15,0,0,0,1.61,1.56c.6.45,2,.87,2.4,1.48l.14-.51a14.87,14.87,0,0,1-3.17,1,3.46,3.46,0,0,1-1.58.21c-.84-.28-.7-.93-.69-1.63.05-2.06,1.14-3.78,1.48-5.77.08-.47-.64-.68-.72-.2Z" transform="translate(-73.99 -303.44)"/>
  <path d="M78.66,312.81c-.22.68-.7,1.24-1,1.89s-.43,1.27-.64,1.9l.72.2a18,18,0,0,0,.2-3.19l-.47.36c1,.37-.3,3.34,1.51,3a.38.38,0,0,0,.26-.26A6.54,6.54,0,0,0,79,313c-.12-.38-.79-.33-.74.1a6.86,6.86,0,0,0,.32,1.18,13.9,13.9,0,0,1,.19,1.58,3,3,0,0,0,.75,1.55,1.55,1.55,0,0,0,2.41.06l-.59-.45c-.31.58-1.41.58-2,.75l.37.63a11,11,0,0,1,2.34-1.14c.59-.31,1.35-1.38,2.09-1.05l.19-.7c-.55.06-1.19-.32-1.77-.32-1.39,0-2.32-.08-2.78-1.6l-.63.36a6,6,0,0,0,1.14.89c.44.26,1.31.38,1.49.84s.08.16-.29.3a4.76,4.76,0,0,1-.64.11c-.27.07-.57.24-.84.11-.42-.19-.2-.67-.08-1.12H79.2a1.57,1.57,0,0,0,.75,1c.57.28.42,0,1.2,0l-.38-.37c0-.28-.83-.21-1-.19a.38.38,0,0,0-.36.48l.29.18-.19.7h.18c.47,0,.48-.79,0-.75h-.18a.38.38,0,0,0-.19.7.52.52,0,0,0,.58.08.35.35,0,0,0,.26-.26,1.14,1.14,0,0,0,0-.85l-.36.47c.67-.08,1.73.52,1.77-.56a.38.38,0,0,0-.37-.38c-.46,0-1,.21-1.22-.43a.38.38,0,0,0-.73,0c-.14.54-.49,1.76.12,2.15.26.17.66,0,.94,0s.65-.2,1-.25a5.65,5.65,0,0,0,1.18-.08.92.92,0,0,0,.37-1.27,1.12,1.12,0,0,0-.63-.65,9.7,9.7,0,0,1-2.48-1.35.38.38,0,0,0-.62.37,3,3,0,0,0,1.5,2,3.39,3.39,0,0,0,1.55.19c.79,0,1.46.38,2.22.29.32,0,.57-.53.19-.7-.82-.37-1.36-.07-2,.43-1,.76-2.28,1-3.29,1.88-.3.24,0,.72.36.62.94-.27,1.93-.12,2.44-1.09.2-.37-.28-.77-.58-.46s-1.39-.07-1.61-.42a4,4,0,0,1-.3-1.51c-.11-.64-.41-1.27-.48-1.91l-.74.1a8.12,8.12,0,0,1,.38,2.34c0,.73,0,.34,0-.15s0-.68-.09-1a1.17,1.17,0,0,0-.83-1.11.37.37,0,0,0-.47.36,18.68,18.68,0,0,1-.17,3,.37.37,0,0,0,.72.2,13.2,13.2,0,0,1,.9-2.39,7.37,7.37,0,0,0,.71-1.4c.15-.46-.58-.65-.72-.2Z" transform="translate(-73.99 -303.44)"/>
  <path d="M80.09,313.32a11.43,11.43,0,0,0,4.36,1.76,17.94,17.94,0,0,0,4.39.15c.48,0,.48-.79,0-.75a16.83,16.83,0,0,1-4.19-.12,11.14,11.14,0,0,1-4.18-1.69.38.38,0,0,0-.38.65Z" transform="translate(-73.99 -303.44)"/>
  <path d="M81.18,306.35c-.68,2-1.19,4.56.75,5.94,2.69,1.92,6,2.09,9.12,2.9a.37.37,0,0,0,.2-.72c-2-.53-4.15-.76-6.14-1.38a7.55,7.55,0,0,1-2.8-1.44c-1.35-1.41-1-3.43-.4-5.1.15-.46-.57-.66-.73-.2Z" transform="translate(-73.99 -303.44)"/>
  <path d="M79.69,309.05c0,1.64-.2,3.64,1.39,4.68,1.81,1.18,4,.62,6,1.09.47.12.67-.61.2-.72-1.32-.32-2.74-.12-4.09-.43a3.08,3.08,0,0,1-2.53-1.74,8.94,8.94,0,0,1-.18-2.88.38.38,0,0,0-.75,0Z" transform="translate(-73.99 -303.44)"/>
  <path d="M80,309a5.74,5.74,0,0,0,.07,2.11c.13.32.42.73.58,1a3.09,3.09,0,0,0,.51.73c1,1.07,2.58,1.21,4,1.31.36,0,.45-.41.27-.64l-.06-.07c-.3-.38-.83.16-.53.53l.06.07.26-.64c-1.3-.09-2.94-.2-3.71-1.43a9.47,9.47,0,0,1-.6-1.13,4.91,4.91,0,0,1-.08-1.88.38.38,0,0,0-.75,0Z" transform="translate(-73.99 -303.44)"/>
  <path d="M80.8,311.45c.43.38.63.94,1.08,1.32a3.59,3.59,0,0,0,1.41.73.38.38,0,0,0,.2-.73,2.74,2.74,0,0,1-1.3-.74c-.34-.33-.5-.8-.86-1.11s-.89.2-.53.53Z" transform="translate(-73.99 -303.44)"/>
  <path d="M75.48,313.38c-.27,1.92,1.76,3.75,3.38,4.44.44.19.82-.45.38-.64-1.21-.52-3.25-2.11-3-3.6.07-.47-.66-.68-.72-.2Z" transform="translate(-73.99 -303.44)"/>
  <path d="M77.5,309.94c-.29,1.18-1,2.22-1.22,3.42a4.06,4.06,0,0,0,.61,2.74.38.38,0,0,0,.65-.38c-1.23-2,.2-3.62.68-5.58a.37.37,0,0,0-.72-.2Z" transform="translate(-73.99 -303.44)"/>
  <path d="M76.2,312.09a4.75,4.75,0,0,0,1.07,5.64c.33.35.86-.18.53-.53a4,4,0,0,1-1-4.73c.2-.44-.45-.82-.64-.38Z" transform="translate(-73.99 -303.44)"/>
  <path d="M77.26,317a2.19,2.19,0,0,1-.91-.82c-.18-.25-.58-.8-.41-1.12s-.41-.8-.64-.38c-.6,1.07.8,2.7,1.76,3,.45.17.65-.56.2-.72Z" transform="translate(-73.99 -303.44)"/>
  <path d="M75.21,316.43c1.5,1.48,3.08,3,5.36,2.39a.37.37,0,0,0-.2-.72c-2,.53-3.34-.93-4.63-2.2a.38.38,0,0,0-.53.53Z" transform="translate(-73.99 -303.44)"/>
  <path d="M82.9,305.11c-1.88,1.91-2.31,5.66-1.42,8.12.16.45.88.25.72-.2-.79-2.19-.44-5.7,1.23-7.39a.38.38,0,0,0-.53-.53Z" transform="translate(-73.99 -303.44)"/>
  <path d="M81,310a3,3,0,0,0,.55,1.58c.32.66.65,1.32,1,2,.22.42.87.05.65-.38s-.52-1-.77-1.5-.73-1.17-.67-1.67-.7-.48-.75,0Z" transform="translate(-73.99 -303.44)"/>
  <path d="M170,334.25c6.32-.63,10.71,0,14.52,5.58,1.63,2.39,6.95,4.73,6.69,7.6-.05.48.7.48.75,0a3.81,3.81,0,0,0-1.11-3.56c-1.22-1.16-2.88-1.5-4.16-2.71s-2.07-2.84-3.25-4.25c-3.42-4.08-8.54-3.9-13.44-3.41-.47.05-.48.8,0,.75Z" transform="translate(-73.99 -303.44)"/>
  <path d="M198.79,367.57a6.8,6.8,0,0,0-3.67,6.94c.15,2.18,1.07,3.09-.11,5.54a21,21,0,0,1-1.46,1.91,19,19,0,0,0-2.36,5.29.37.37,0,0,0,.72.19,18.73,18.73,0,0,1,2.29-5.1c.72-1.1,2.17-2.21,2.46-3.58a4,4,0,0,0-.16-1.47c-.51-3.54-1.12-7.07,2.67-9.07.43-.23.05-.88-.38-.65Z" transform="translate(-73.99 -303.44)"/>
  <path d="M74.35,384.91a4.14,4.14,0,0,0,3.38,1.49c2.56.17,4.25.6,5.57,3.6.42.95.46,2.13,1.09,3,1.09,1.47,2.07,1.23,3.63,2.15s2.55,2.05,4.42,2.52a.44.44,0,0,0,.24-.84c-1.89-.48-3.31-1.77-4.9-2.81-2.28-1.51-3-3.52-4.2-5.8a4.68,4.68,0,0,0-2-2.26c-2.11-1.05-4.79.48-6.59-1.66-.36-.42-1,.19-.62.62Z" transform="translate(-73.99 -303.44)"/>
  <path d="M74.25,377.11a9.8,9.8,0,0,0,3.48,3.44c2.73,1.73,4.73,3.53,5,7,0,.48.78.48.75,0A8.62,8.62,0,0,0,81,381.9c-2-1.94-4.66-2.62-6.09-5.17a.38.38,0,0,0-.65.38Z" transform="translate(-73.99 -303.44)"/>
  <path d="M74.86,378.65a16.21,16.21,0,0,0,.32,4.66c.11.49.27,2.06,1.12,1.92.69-.12.46-1,.34-1.49a46.56,46.56,0,0,1-1.06-5l-.46.47c.23.08.62.74.86.92a4.45,4.45,0,0,0,1.31.55A5.85,5.85,0,0,1,81,383.1a.37.37,0,0,0,.65-.37,5.65,5.65,0,0,0-2.91-2.36,7.86,7.86,0,0,1-2.35-1c-.39-.34-.53-.74-1-.92-.3-.11-.5.21-.46.46A40.65,40.65,0,0,0,76,384a16.82,16.82,0,0,0-.39-2.57,16.84,16.84,0,0,1,0-2.75c0-.48-.72-.48-.75,0Z" transform="translate(-73.99 -303.44)"/>
  <path d="M82.62,385.94a13.8,13.8,0,0,0-3.72-.62,7.36,7.36,0,0,1-4-1.43v.65c.65-.31.82.23,1.31.34a10.52,10.52,0,0,0,1.25.21c1.2.13,3.67-.35,4.5.73l.59-.45a41.66,41.66,0,0,0-3.09-3.8c-.89-.89-2.13-1.17-3.21-1.78-.35-.2-.78.3-.45.59a22.53,22.53,0,0,0,2.66,1.74l1.78,1.12c.21.14,2.4,1.51,1.14,1.88a6.58,6.58,0,0,1-.92-.19,15.27,15.27,0,0,1-1.65-.25,5.24,5.24,0,0,0-2.34-.37.36.36,0,0,0-.28.36c0,.57.54.56,1,.63a3.67,3.67,0,0,0,1.14.07c.33-.06.68-.3,1-.35a12.69,12.69,0,0,1,1.38,0,.37.37,0,0,0,.32-.56,3.08,3.08,0,0,0-1.69-1.15c-1.16-.41-3.46-1.24-3.34-2.85l-.64.27a12.28,12.28,0,0,0,2.28,1.43c1.15.53,2.38.66,2.44,2.33l.37-.37a19.66,19.66,0,0,1-2-.21,2.67,2.67,0,0,1-1.68-1.22s0-.68-.06-.67c-.66.43,2.45,1.35,2.43,1.34l.73,1.07-.41-.14a4,4,0,0,1-1.11-.49A4.81,4.81,0,0,1,77,382.62c-.41-.69.25-1.32-.58-2-.2-.16-.57-.14-.63.16-.33,1.65,1.42,2.77,2.67,3.49a.38.38,0,0,0,.38-.65c-.79-.45-2.56-1.46-2.33-2.64l-.62.17c.45.35-.1,1,.05,1.41a1.31,1.31,0,0,0,.42.53,8,8,0,0,0,3,1.89c1.7.57,1.65-1.54.52-2.25-.49-.31-1.19-.22-1.73-.47s-.95-.83-1.39-.88a.59.59,0,0,0-.73.52,2.47,2.47,0,0,0,.73,2.32c1,.71,2.69.51,3.82.62a.38.38,0,0,0,.38-.38c0-.79.07-1.53-.6-2.05a4.38,4.38,0,0,0-1.33-.58,11.21,11.21,0,0,1-3-1.66.38.38,0,0,0-.64.26c-.08,1.06.58,1.67,1.37,2.28a6.74,6.74,0,0,0,1.56,1c.79.34,1.66.35,2.2,1.11l.33-.57a10.3,10.3,0,0,0-2.49.17,4.69,4.69,0,0,0-.61.18c-.69-.19-.66,0,.08.5l.43.14a9.7,9.7,0,0,0,2.61.48c.51.09,1.06.44,1.56.1,2.42-1.63-5.39-5.45-6-6l-.45.59c1.17.66,2.4,1,3.35,2s1.87,2.32,2.79,3.47c.26.33.85-.12.59-.46-1-1.28-2.38-1-3.85-1a8,8,0,0,1-2-.18c-.36-.12-.65-.43-1-.54a1.55,1.55,0,0,0-1.27.18.38.38,0,0,0,0,.65,8.22,8.22,0,0,0,3.14,1.5,26.9,26.9,0,0,1,4.71.62.37.37,0,0,0,.2-.72Z" transform="translate(-73.99 -303.44)"/>
  <path d="M83.77,304.81c-1.78,1.34-2.46,4.91-1,6.7,1,1.17,2.79,1.75,4.11,2.37a27.11,27.11,0,0,0,4.27,1.23.38.38,0,0,0,.2-.73,31.61,31.61,0,0,1-5.21-1.67,8.33,8.33,0,0,1-2.58-1.59c-1.25-1.33-.95-4.51.58-5.66.38-.29,0-.94-.38-.65Z" transform="translate(-73.99 -303.44)"/>
  <path d="M82.44,310.88a.38.38,0,0,0,0-.75.38.38,0,0,0,0,.75Z" transform="translate(-73.99 -303.44)"/>
  <path d="M81.4,309c.08.71.08,2,.63,2.5.3.3.74.58,1.08.86a11.37,11.37,0,0,0,1.2.86c.41.26.78-.39.38-.65a10.12,10.12,0,0,1-1.82-1.44,1.53,1.53,0,0,1-.5-.78,7.91,7.91,0,0,1-.22-1.35c-.06-.48-.81-.48-.75,0Z" transform="translate(-73.99 -303.44)"/>
  <path d="M203.6,343.58c0,1.56-.59,4.49.31,5.91.58.92,1.9,1.26,2.46,2.23.93,1.61.58,4.34.62,6.15,0,.19.31.19.3,0,0-2,.38-4.82-.88-6.6-.4-.56-1.07-.81-1.46-1.31-1.4-1.76-1.11-4.3-1-6.38a.15.15,0,0,0-.3,0Z" transform="translate(-73.99 -303.44)"/>
  <path d="M208,348.26a3.75,3.75,0,0,1,1.5.43c.19.09.19.29.42.36a.14.14,0,0,0,.14,0,.36.36,0,0,0,.07-.48.16.16,0,0,0-.17-.07c-1.11.41-1.34,2.31-1.28,3.28,0,.57.4,1.28.19,1.86-.15.42-.82,1-1.05,1.37a6.15,6.15,0,0,0-.69,2.78c0,.2.29.2.3,0a5.6,5.6,0,0,1,.8-2.87c.28-.46,1-.87,1.12-1.35.19-.75,0-.1,0-.83a2.42,2.42,0,0,1-.16-2.35,1.6,1.6,0,0,1,.45-1.07c.09-.52.7-.27-.11-1.1-.35-.37-1-.14-1.42-.21-.19,0-.27.25-.08.29Z" transform="translate(-73.99 -303.44)"/>
  <g>
    <polyline class="cls-1" points="106.34 9.97 106.32 8.17 105.08 8.18"/>
    <polyline class="cls-1" points="105.75 10.99 105.73 9.19 104.49 9.2"/>
    <polyline class="cls-1" points="105.36 11.49 105.34 9.69 104.1 9.7"/>
    <polyline class="cls-1" points="106.04 10.49 106.02 8.7 104.78 8.7"/>
    <polyline class="cls-1" points="106.57 10.37 108.36 10.48 108.26 11.68"/>
    <polyline class="cls-1" points="105.51 10.88 107.3 10.99 107.2 12.19"/>
    <polyline class="cls-1" points="104.99 11.23 106.78 11.34 106.68 12.54"/>
    <polyline class="cls-1" points="106.03 10.63 107.82 10.74 107.72 11.94"/>
    <path d="M179.71,313.9c-.45.47-1.18.36-.63,1.1s.6-.14,1-.61,1.23-.5.72-1.12S180.17,313.43,179.71,313.9Z" transform="translate(-73.99 -303.44)"/>
  </g>
  <path d="M79.4,308.05c-1.13.65-2.8,1.36-3.31,2.65a3.07,3.07,0,0,0-.06,1.92,1.79,1.79,0,0,0,.43.8c-.06-.06.63.38.61.34.22.41-.11,1.32,0,1.8A1.77,1.77,0,0,0,78.46,317c1.49.33,2.5-1.18,4-.91,1.88.34,2.69-2.55.79-2.89a6.07,6.07,0,0,0-2.44,0,5.71,5.71,0,0,0-1.14.4c-.3.14-1,.28-.36.55l.69.9c-.16-.81.17-1.56-.15-2.38a2.77,2.77,0,0,0-1.57-1.61L79,312c0-.3-.1-.3-.2,0l.7-.46,1.44-.87a1.5,1.5,0,0,0-1.51-2.59Z" transform="translate(-73.99 -303.44)"/>
  <path d="M87.68,315.16a.75.75,0,0,0,0-1.5.75.75,0,0,0,0,1.5Z" transform="translate(-73.99 -303.44)"/>
  <path d="M84.92,315.59a.75.75,0,0,0,0-1.5.75.75,0,0,0,0,1.5Z" transform="translate(-73.99 -303.44)"/>
  <path d="M85.49,315.66a.75.75,0,0,0,0-1.5.75.75,0,0,0,0,1.5Z" transform="translate(-73.99 -303.44)"/>
</svg>
