<?xml version="1.0" encoding="utf-8"?>
<!-- Generator: Adobe Illustrator 22.0.1, SVG Export Plug-In . SVG Version: 6.00 Build 0)  -->
<svg version="1.1" id="Layer_1" xmlns="http://www.w3.org/2000/svg" xmlns:xlink="http://www.w3.org/1999/xlink" x="0px" y="0px"
	 viewBox="0 0 176.7 141" style="enable-background:new 0 0 176.7 141;" xml:space="preserve">
<style type="text/css">
	.st0{fill:none;stroke:#000000;stroke-width:1.5;stroke-miterlimit:10;}
	.st1{fill:none;stroke:#000000;stroke-width:1.5;stroke-miterlimit:10;}
	.st2{fill:none;stroke:#000000;stroke-miterlimit:10;}
	.st3{fill:none;stroke:#000000;stroke-width:0.25;stroke-miterlimit:10;}
</style>
<title>empty_wallet</title>
<g>
	<path d="M160,89.9v31.6c0,10.3-8.4,18.7-18.7,18.7c0,0,0,0,0,0H19.5c-10.3,0-18.7-8.4-18.7-18.7V47.4c0-0.7,0-1.8,0.1-2.5
		c-0.2,0-0.6,0.3-0.9,0.2c0.1,1,0,1.5,0,2.2v74.2C0,132.3,8.7,141,19.5,141h121.8c10.7,0,19.4-8.7,19.5-19.5v-32
		C160.6,89.7,160.3,89.8,160,89.9z"/>
	<path d="M160,66.8c0.2-0.1,0.5-0.3,0.8-0.3V47.4c0-10.7-8.7-19.4-19.5-19.5H22.9c0,0.3,0.1,0.5,0.1,0.8h118.4
		c10.3,0,18.7,8.4,18.7,18.7V66.8z"/>
	<path d="M159.2,90.1v31.5c0,9.9-8,17.9-17.9,17.9H19.5c-9.9,0-17.9-8-17.9-17.9V47.4v-2c-0.3-0.1-0.6-0.5-0.8-0.6
		c-0.1,0.7,0,1.8,0,2.5v74.2c0,10.3,8.4,18.7,18.7,18.7h121.9c10.3,0,18.7-8.3,18.7-18.7c0,0,0,0,0,0V89.9
		C159.8,90,159.5,90,159.2,90.1z"/>
	<path d="M159.2,67.5c0.2-0.3,0.5-0.5,0.8-0.7V47.4c0-10.3-8.4-18.7-18.7-18.7H23c0,0.3,0,0.5,0,0.8h118.4c9.9,0,17.9,8,17.9,17.9
		V67.5z"/>
	<path d="M22.2,28.7H23c0-0.3-0.1-0.5-0.1-0.8h-0.8C22.1,28.2,22.2,28.4,22.2,28.7z"/>
	<path d="M22.2,29.5H23c0-0.3,0-0.5,0-0.8h-0.8C22.2,29,22.2,29.2,22.2,29.5z"/>
	<path d="M21.4,28.7h0.8c0-0.3-0.1-0.5-0.1-0.8h-0.8C21.3,28.2,21.4,28.4,21.4,28.7z"/>
	<path d="M21.5,29.5h0.8c0-0.3,0-0.5,0-0.8h-0.8C21.4,29,21.4,29.2,21.5,29.5z"/>
</g>
<path class="st0" d="M22.1,28.7c-3.3,0-7.7,0.2-10.9-1c-1.3-0.4-2.3-1.3-2.9-2.5c-0.4-1-0.5-2-0.2-3c0.5-2.8,2.2-5.3,4.7-6.7"/>
<g>
	<path d="M169.3,61.9c0.3,0.1,0.6,0.2,0.8,0.4V32.7c0-10.7-9.2-19.5-20.6-19.5H20.7c-11.3,0-20.6,8.7-20.6,19.5v14h0.8v-14
		C0.9,22.3,9.8,14,20.7,14h128.9c10.9,0,19.8,8.4,19.8,18.7L169.3,61.9z"/>
	<path d="M169.3,82.1v24.8c0,10.3,0.2,21.7-10.7,21.7v0.8c11.3,0,11.6-11.8,11.6-22.5V80.9C169.9,81.4,169.7,81.7,169.3,82.1z"/>
	<path d="M168.5,61.8c0.3,0,0.6,0,0.8,0.1V32.7c0-10.3-8.8-18.7-19.8-18.7H20.7C9.8,14,0.9,22.3,0.9,32.7v14h0.8v-14
		c0-9.9,8.5-17.9,19-17.9h128.9c10.4,0,18.9,8,18.9,17.9L168.5,61.8z"/>
	<path d="M168.5,82.5v24.3c0,9.9,0.5,21-9.9,21v0.8c10.9,0,10.7-11.4,10.7-21.7V82.1C169,82.3,168.8,82.4,168.5,82.5z"/>
</g>
<path class="st1" d="M169.3,81.5c3.8-6.4,3.8-14.4,0-20.8l-9.3,6.9L116.4,69c-2,0-3.8,1.1-4.8,2.8c-1.6,2.7-3,7.3-0.4,14.2
	c0.8,2.2,2.9,3.6,5.3,3.6H160L169.3,81.5z"/>
<circle class="st2" cx="122.2" cy="79.3" r="3.6"/>
<g>
	<g>
		<ellipse class="st3" cx="157.5" cy="26.9" rx="1.5" ry="0.7"/>
		<line class="st3" x1="151.4" y1="14" x2="157.5" y2="26.2"/>
		<line class="st3" x1="158.6" y1="26.4" x2="168.1" y2="24.3"/>
		<line class="st3" x1="156.1" y1="27.3" x2="145.5" y2="29.8"/>
		<line class="st3" x1="158.2" y1="27.6" x2="168.6" y2="37.7"/>
		<line class="st3" x1="156.1" y1="26.6" x2="138.9" y2="14.5"/>
		<line class="st3" x1="157.1" y1="27.7" x2="155.3" y2="36"/>
		<path class="st3" d="M154.4,25.4c0,0,1.7,0.5,2.3-0.8l-0.4-0.9c1.2,1.8,3.5,2.7,5.6,2c0,0-2.7,1.6-1.7,3.8c0,0-2.5-1.3-3.4,0
			c0,0-0.8-2.2-3.6-1.5c0,0,1.6-2.2,0.3-3.2"/>
		<path class="st3" d="M152.4,24c0,0,2.7,0.6,3.1-1.8c0,0,5.1,3.7,9.5,2.7c0,0-4.5,2.6-3.5,5.8c0,0-4.8-1.1-5.3,1.4
			c0,0-1-4.5-5.5-3.5c0,0,3.2-2.8,0.9-5.2c0,0,2.8-0.4,3-3c0,0,9.3,4.9,12.5,4.1c0,0-4.5,3.2-5,6.9c0,0-5.8-0.1-6.3,2.4
			c0,0-2.8-5.8-7.2-4.8c0,0,2.9-2.9,1.9-6.2c0,0,3.3-1.4,2.8-4.7"/>
	</g>
	<path class="st3" d="M155.7,34.5c2.8-2.7,7.7-1.9,7.7-1.9c-1-2.1,3.7-8.6,3.7-8.6c-7.2-0.9-14.1-6.9-14.1-6.9s-0.9,3.9-4.1,4.4
		c0,0,1.1,6.4-2.3,7.5"/>
	<path class="st3" d="M152.4,16c0,0-2.4,4.6-5.8,3.9c0,0,2.2,5.8-1.4,8.7"/>
	<path class="st3" d="M152,15.2c0,0-4.4,4.6-6.9,3.6c0,0,1.6,7.4-1.9,9.4"/>
</g>
<g>
	<line class="st3" x1="32.4" y1="13.5" x2="0.8" y2="43.7"/>
	<line class="st3" x1="31.1" y1="14" x2="0.8" y2="35.3"/>
	<line class="st3" x1="32.6" y1="13.4" x2="0.8" y2="56"/>
	<line class="st3" x1="32.8" y1="14" x2="1.6" y2="62.3"/>
	<line class="st3" x1="32.8" y1="14" x2="0.8" y2="83.8"/>
	<path class="st3" d="M5.4,32.1c0,0,2.3,0.6,2.6,4.8c2.2,0,4,1.6,4.4,3.7c0,0,2-0.2,2.3,1.6c0,0,4,0.1,3.7,3.4"/>
	<path class="st3" d="M1.7,34.6c2.2,1,3.3,3.5,2.6,5.8c0,0,4.5-0.7,4.9,4.5c0,0,1.6-0.4,2.7,1.6c0,0,5.7,0.9,4.1,4.3"/>
	<path class="st3" d="M17.2,23.8c0,0,2.4-0.3,2.6,1.7c1.1,0,2,0.6,2.6,1.6c0,0,1.2,0.1,1.4,0.9"/>
	<path class="st3" d="M9.7,29.1c1.7,0,3.2,1.2,3.5,2.8c0,0,3,0,3.7,2.7c0,0,1.7-0.3,1.9,1.3c1.3,0,2.6,0.7,3.3,1.8"/>
	<path class="st3" d="M1.7,42.8c0,0,5,0.5,4.2,6.4c0,0,2.3-0.3,2.6,2.4c0,0,4.8,0.1,5.1,4.3"/>
	<path class="st3" d="M3.3,52.7c0,0,2.8,0.3,2.8,2.6c0,0,5.9,0.8,5.6,4.6"/>
	<path class="st3" d="M0.8,56c0,0,1.7,0.7,1.6,4.7c0,0,7.6,1.6,5.4,7.6"/>
	<path class="st3" d="M25,18.3c0,0,1.1-0.1,1,1.3c0,0,1.2,0.1,1.2,1c0.4,0,0.8,0.4,0.8,0.8c0,0,1.2,0,1,0.8"/>
</g>
<g>
	<ellipse transform="matrix(0.9056 -0.4242 0.4242 0.9056 11.5774 68.6914)" class="st3" cx="160.1" cy="8.3" rx="1" ry="2.2"/>
	<ellipse transform="matrix(0.867 -0.4983 0.4983 0.867 16.9485 82.5948)" class="st3" cx="163.2" cy="9.5" rx="2.2" ry="1"/>
	<ellipse transform="matrix(0.1302 -0.9915 0.9915 0.1302 130.3644 168.5936)" cx="161.3" cy="10" rx="1.1" ry="0.7"/>
</g>
<g>
	<ellipse transform="matrix(0.5906 -0.807 0.807 0.5906 48.8251 151.6153)" class="st3" cx="173.8" cy="27.7" rx="2.2" ry="1"/>
	<ellipse transform="matrix(0.2807 -0.9598 0.9598 0.2807 97.0773 188.8395)" class="st3" cx="174.5" cy="29.7" rx="1" ry="2.2"/>
	<ellipse transform="matrix(0.9314 -0.3639 0.3639 0.9314 1.3782 65.1082)" cx="173.5" cy="28.9" rx="1.3" ry="0.7"/>
</g>
<g>
	<ellipse transform="matrix(0.757 -0.6534 0.6534 0.757 1.1484 18.9947)" class="st3" cx="26.1" cy="8" rx="1" ry="2.2"/>
	<ellipse transform="matrix(0.4895 -0.872 0.872 0.4895 7.6229 28.5402)" class="st3" cx="28.2" cy="7.8" rx="2.2" ry="1"/>
	<ellipse transform="matrix(0.9895 -0.1449 0.1449 0.9895 -0.9614 4.0332)" cx="27.2" cy="8.6" rx="0.7" ry="1.3"/>
</g>
<g>
	<ellipse transform="matrix(0.4381 -0.8989 0.8989 0.4381 5.4662 14.5473)" class="st3" cx="14.4" cy="2.9" rx="1" ry="2.2"/>
	<ellipse transform="matrix(0.359 -0.9333 0.9333 0.359 8.5663 16.8145)" class="st3" cx="16.5" cy="2.2" rx="2.2" ry="1"/>
	<ellipse transform="matrix(0.8521 -0.5234 0.5234 0.8521 0.6421 8.7092)" cx="15.7" cy="3.2" rx="0.7" ry="1.1"/>
</g>
<g>
	<ellipse transform="matrix(0.4775 -0.8787 0.8787 0.4775 -22.5856 42.4843)" class="st3" cx="24.4" cy="40.2" rx="2.2" ry="1"/>
	<ellipse transform="matrix(0.4 -0.9165 0.9165 0.4 -23.8457 48.4234)" class="st3" cx="25.1" cy="42.4" rx="1" ry="2.2"/>
	<ellipse transform="matrix(0.8745 -0.4851 0.4851 0.8745 -17.155 16.8813)" cx="24" cy="41.6" rx="1.1" ry="0.7"/>
</g>
<g>
	<ellipse transform="matrix(0.108 -0.9942 0.9942 0.108 -3.4219 33.6384)" class="st3" cx="17" cy="18.7" rx="1" ry="2.2"/>
	
		<ellipse transform="matrix(1.999600e-02 -0.9998 0.9998 1.999600e-02 1.1402 35.4345)" class="st3" cx="18.6" cy="17.1" rx="2.2" ry="1"/>
	<ellipse transform="matrix(0.6247 -0.7809 0.7809 0.6247 -7.5746 21.3593)" cx="18.4" cy="18.6" rx="0.7" ry="1.1"/>
</g>
</svg>
