<svg id="Layer_1" data-name="Layer 1" xmlns="http://www.w3.org/2000/svg" width="60.11mm" height="65.32mm" viewBox="0 0 170.4 185.16">
  <defs>
    <style>
      .cls-1 {
        fill: none;
      }

      .cls-1, .cls-2, .cls-3, .cls-4, .cls-5, .cls-6, .cls-7 {
        stroke: #000;
        stroke-miterlimit: 10;
      }

      .cls-1, .cls-2 {
        stroke-width: 1.5px;
      }

      .cls-2, .cls-3, .cls-6, .cls-7 {
        fill: none;
      }

      .cls-4, .cls-6 {
        stroke-width: 0.75px;
      }

      .cls-5, .cls-7 {
        stroke-width: 0.5px;
      }
    </style>
  </defs>
  <title>full_wallet</title>
  <g>
    <path d="M220.38,214.81v27.4a16.19,16.19,0,0,1-16.19,16.19H98.56a16.18,16.18,0,0,1-16.18-16.19v-64.3c0-.61,0-1.57.07-2.16-.2,0-.56.3-.78.2,0,.84,0,1.28,0,2l0,64.31a16.88,16.88,0,0,0,16.86,16.87H204.19a16.89,16.89,0,0,0,16.87-16.87v-27.7A2.6,2.6,0,0,1,220.38,214.81Z" transform="translate(-72.7 -73.92)"/>
    <path d="M220.38,194.76a2.09,2.09,0,0,1,.68-.29V177.91A16.89,16.89,0,0,0,204.19,161H101.48c0,.23.07.45.09.68H204.19a16.19,16.19,0,0,1,16.19,16.19Z" transform="translate(-72.7 -73.92)"/>
    <path d="M219.69,214.91v27.3a15.52,15.52,0,0,1-15.5,15.51H98.56a15.52,15.52,0,0,1-15.5-15.51l0-64.27v-1.72c-.22-.08-.5-.41-.71-.49-.07.59,0,1.57,0,2.18v64.3A16.18,16.18,0,0,0,98.56,258.4H204.19a16.19,16.19,0,0,0,16.19-16.19v-27.4A3,3,0,0,1,219.69,214.91Z" transform="translate(-72.7 -73.92)"/>
    <path d="M219.69,195.38a2.28,2.28,0,0,1,.69-.62V177.91a16.19,16.19,0,0,0-16.19-16.19H101.57c0,.23,0,.46.05.68H204.19a15.52,15.52,0,0,1,15.5,15.51Z" transform="translate(-72.7 -73.92)"/>
    <path d="M100.89,161.72h.68c0-.23-.06-.45-.09-.68h-.68C100.83,161.27,100.87,161.49,100.89,161.72Z" transform="translate(-72.7 -73.92)"/>
    <path d="M100.94,162.4h.68c0-.22,0-.45-.05-.68h-.68C100.92,162,100.93,162.18,100.94,162.4Z" transform="translate(-72.7 -73.92)"/>
    <path d="M100.21,161.72h.68c0-.23-.06-.45-.09-.68h-.7C100.14,161.27,100.18,161.49,100.21,161.72Z" transform="translate(-72.7 -73.92)"/>
    <path d="M100.25,162.4h.69c0-.22,0-.45,0-.68h-.68C100.23,162,100.24,162.18,100.25,162.4Z" transform="translate(-72.7 -73.92)"/>
  </g>
  <path class="cls-1" d="M100.8,161.73c-2.84,0-6.71.16-9.42-.84a4.34,4.34,0,0,1-2.53-2.16,4.25,4.25,0,0,1-.17-2.64,8.35,8.35,0,0,1,4-5.8" transform="translate(-72.7 -73.92)"/>
  <g>
    <path d="M228.77,164.69a3.05,3.05,0,0,1-.34.61v25.23a2.34,2.34,0,0,1,.72.31V165.15c0-.34,0-.68-.05-1A2.12,2.12,0,0,1,228.77,164.69Z" transform="translate(-72.7 -73.92)"/>
    <path d="M95,148.85c-7.65,1.91-13.31,8.48-13.31,16.3l0,12.09h.72l0-12.09c0-7.58,5.51-13.92,13-15.69A2.34,2.34,0,0,1,95,148.85Z" transform="translate(-72.7 -73.92)"/>
    <path d="M111.54,148.28a2.88,2.88,0,0,1-.34.68h10a3.14,3.14,0,0,1,.13-.68Z" transform="translate(-72.7 -73.92)"/>
    <path d="M228.43,208v21.47c0,8.94.14,18.86-9.32,18.86V249c9.84,0,10-10.24,10-19.54V207A2.61,2.61,0,0,1,228.43,208Z" transform="translate(-72.7 -73.92)"/>
    <path d="M95.37,149.46c-7.44,1.77-13,8.11-13,15.69l0,12.09h.72l0-12.09c0-7.42,5.54-13.63,12.91-15.15A2.39,2.39,0,0,1,95.37,149.46Z" transform="translate(-72.7 -73.92)"/>
    <path d="M110.53,149.64h10.71a3.84,3.84,0,0,1,0-.68h-10A2.55,2.55,0,0,1,110.53,149.64Z" transform="translate(-72.7 -73.92)"/>
    <path d="M228.39,165.33a2.85,2.85,0,0,1-.68,1.6v23.5a2.72,2.72,0,0,1,.72.1V165.3Z" transform="translate(-72.7 -73.92)"/>
    <path d="M227.71,208.39v21.06c0,8.55.45,18.18-8.6,18.18v.68c9.46,0,9.32-9.92,9.32-18.86V208A2.54,2.54,0,0,1,227.71,208.39Z" transform="translate(-72.7 -73.92)"/>
  </g>
  <path class="cls-2" d="M228.43,207.49a17.92,17.92,0,0,0,0-18.06l-8.05,6-37.81,1.23a4.93,4.93,0,0,0-4.13,2.42c-1.36,2.32-2.57,6.37-.39,12.32a4.86,4.86,0,0,0,4.57,3.14h37.76Z" transform="translate(-72.7 -73.92)"/>
  <circle class="cls-3" cx="114.89" cy="131.65" r="3.13"/>
  <path d="M123.17,161.84l-5.84-56.54,49.6-5.12L173.31,162a3.08,3.08,0,0,1,.68-.08l-6.42-62.15,0-.34-50.62,5.22-.33,0,5.88,57A3.31,3.31,0,0,1,123.17,161.84Z" transform="translate(-72.7 -73.92)"/>
  <path class="cls-3" d="M126.09,161.23c.14,0,.26,0,.39,0L122.9,119.9a2,2,0,0,1-.56.09h0l3.57,41.26Z" transform="translate(-72.7 -73.92)"/>
  <path class="cls-3" d="M165.58,115.05h0a3,3,0,0,1-.55.19l5.1,45.87a1.48,1.48,0,0,1,.54-.25Z" transform="translate(-72.7 -73.92)"/>
  <path class="cls-4" d="M165,115.26c-10,2.35-13.38-7.92-13.52-8.36l-.15-.47-17.87,1.93,0,.52c0,.39-.69,9.62-11.1,11l.15,1.23a13.43,13.43,0,0,0,12.06-11.65l16-1.73c.85,2.18,5,11,14.77,8.71A2.91,2.91,0,0,1,165,115.26Z" transform="translate(-72.7 -73.92)"/>
  <path class="cls-3" d="M163.07,144.65a21.08,21.08,0,0,0-16.63-5.59,21.9,21.9,0,0,0-15.29,9.1,26.4,26.4,0,0,0-4.87,12.39,2.91,2.91,0,0,1,.6.06,25.6,25.6,0,0,1,4.72-12,21.33,21.33,0,0,1,14.9-8.86c.4-.05.8-.08,1.2-.1a20.6,20.6,0,0,1,15,5.54,24.39,24.39,0,0,1,6.62,10.4,2.93,2.93,0,0,1,.39-.69A24.93,24.93,0,0,0,163.07,144.65Z" transform="translate(-72.7 -73.92)"/>
  <path d="M209.57,119.24a3.08,3.08,0,0,1,0,.74l32.65,15.46-21.74,45.9a2.74,2.74,0,0,1,.23,1.1l22.27-47,.14-.31Z" transform="translate(-72.7 -73.92)"/>
  <path class="cls-5" d="M220.14,174l13.5-28.7h0a1.89,1.89,0,0,1-.51-.12l-13.22,28.11C220,173.56,220.08,173.8,220.14,174Z" transform="translate(-72.7 -73.92)"/>
  <path class="cls-5" d="M226.6,132.32l.11-.43-14.78-7-.27.39a11.54,11.54,0,0,1-2.88,2.67,3,3,0,0,1,0,1.2,13.88,13.88,0,0,0,3.46-2.87l13.21,6.26c-.38,2.09-1.41,10.91,7.31,13.77a2.69,2.69,0,0,1,.34-1.06C224.22,142.29,226.5,132.73,226.6,132.32Z" transform="translate(-72.7 -73.92)"/>
  <path class="cls-5" d="M217.6,167.05a19.67,19.67,0,0,0-10.66-12.49,19.34,19.34,0,0,0-2.67-1,3.07,3.07,0,0,1,0,.68,17.43,17.43,0,0,1,2.41.89c.35.16.68.32,1,.5A19.22,19.22,0,0,1,216.93,167a2.65,2.65,0,0,1,1.07,2.05.94.94,0,0,1,.1.1A19.37,19.37,0,0,0,217.6,167.05Z" transform="translate(-72.7 -73.92)"/>
  <path d="M163.35,88.12l-2,12.31a2.6,2.6,0,0,1,.67.15l1.92-11.68L213.11,97l-10.65,64.62.7-.07,10.67-64.77.06-.34Z" transform="translate(-72.7 -73.92)"/>
  <path class="cls-3" d="M199.63,161.29l7.65-50.39a3.73,3.73,0,0,1-.48,0h-.1l-7.61,50.12A2.21,2.21,0,0,1,199.63,161.29Z" transform="translate(-72.7 -73.92)"/>
  <path class="cls-4" d="M206.45,110.86c-10.28-.32-10.88-11.11-10.9-11.57l0-.5L177.76,96l-.17.49a12.14,12.14,0,0,1-9.59,7.74c0,.11,0,.23,0,.34a3.62,3.62,0,0,1,.16.86,13.53,13.53,0,0,0,10.36-8.07l15.89,2.47c.25,2.32,1.93,11.94,12,12.22A3,3,0,0,1,206.45,110.86Z" transform="translate(-72.7 -73.92)"/>
  <path class="cls-3" d="M198.23,160.91a2.53,2.53,0,0,1,.56.06s.06-.1.11-.13a32.5,32.5,0,0,0-3.85-14.41c-3.66-6.5-9.31-10.54-15.93-11.38a20.61,20.61,0,0,0-7.69.54,3,3,0,0,1,.15.85A20,20,0,0,1,179,136c.44.05.87.12,1.3.21,5.89,1.14,10.91,5,14.23,10.87a31.53,31.53,0,0,1,3.74,13.88Z" transform="translate(-72.7 -73.92)"/>
  <g>
    <circle class="cls-6" cx="11.96" cy="41.13" r="11.59"/>
    <circle class="cls-6" cx="11.96" cy="41.13" r="9.59"/>
    <g>
      <path d="M83.07,118.94a4.07,4.07,0,0,0,2.17,0c1.14-.32,1.65-1.11,1.41-2s-.82-1.15-2.12-1.28c-1.56-.11-2.64-.61-3-1.83s.47-2.67,2.16-3.14a4.18,4.18,0,0,1,2-.1l-.06,1a3.61,3.61,0,0,0-1.76,0c-1.19.33-1.45,1.16-1.28,1.76.22.81.86,1.06,2.19,1.2,1.62.16,2.57.66,2.92,1.94s-.3,2.78-2.35,3.34A4.73,4.73,0,0,1,83,120Z" transform="translate(-72.7 -73.92)"/>
      <rect x="82.83" y="109.42" width="0.97" height="2" rx="0.12" ry="0.12" transform="matrix(0.96, -0.27, 0.27, 0.96, -99.06, -47.79)"/>
      <rect x="85.49" y="119.07" width="0.97" height="2" rx="0.12" ry="0.12" transform="translate(-101.53 -46.74) rotate(-15.42)"/>
    </g>
  </g>
  <circle class="cls-6" cx="30.39" cy="66.89" r="11.59"/>
  <circle class="cls-6" cx="30.39" cy="66.89" r="9.59"/>
  <g>
    <path d="M99,139.86a4.11,4.11,0,0,0,.34,2.14c.49,1.09,1.36,1.46,2.18,1.08s1-1,.92-2.29c-.14-1.56.18-2.71,1.33-3.24s2.72,0,3.45,1.64a4.11,4.11,0,0,1,.43,2l-1,.11a3.66,3.66,0,0,0-.33-1.74c-.51-1.12-1.37-1.24-1.93-1-.77.35-.92,1-.84,2.35.1,1.64-.24,2.65-1.45,3.2s-2.79.15-3.67-1.79A4.7,4.7,0,0,1,98,140Z" transform="translate(-72.7 -73.92)"/>
    <rect x="106.95" y="137.74" width="0.97" height="2" rx="0.12" ry="0.12" transform="translate(116.06 -90.68) rotate(65.36)"/>
    <rect x="97.85" y="141.91" width="0.97" height="2" rx="0.12" ry="0.12" transform="translate(114.55 -79.97) rotate(65.36)"/>
  </g>
  <circle class="cls-6" cx="30.39" cy="11.96" r="11.59"/>
  <circle class="cls-6" cx="30.39" cy="11.96" r="9.59"/>
  <g>
    <path d="M99,86.77a4.19,4.19,0,0,0,1.22,1.8,1.61,1.61,0,0,0,2.43,0c.55-.64.49-1.32-.14-2.46-.79-1.35-1-2.52-.18-3.49s2.47-1.13,3.81,0a4.13,4.13,0,0,1,1.24,1.62l-.86.52a3.64,3.64,0,0,0-1-1.43,1.47,1.47,0,0,0-2.18-.06c-.54.65-.38,1.32.26,2.49.79,1.43.91,2.49.06,3.51s-2.46,1.32-4.09,0a4.57,4.57,0,0,1-1.39-1.92Z" transform="translate(-72.7 -73.92)"/>
    <rect x="105.65" y="81.14" width="0.97" height="2" rx="0.12" ry="0.12" transform="translate(5.03 -122.94) rotate(40.04)"/>
    <rect x="99.21" y="88.81" width="0.97" height="2" rx="0.12" ry="0.12" transform="translate(8.45 -117) rotate(40.04)"/>
  </g>
  <circle class="cls-7" cx="35.86" cy="40.26" r="5.73"/>
  <circle class="cls-7" cx="35.86" cy="40.26" r="4.75"/>
  <g>
    <path d="M107.35,115.86a2.05,2.05,0,0,0,1,.26c.59,0,.92-.35.91-.8s-.26-.64-.87-.85-1.21-.6-1.23-1.23a1.29,1.29,0,0,1,1.4-1.26,2.07,2.07,0,0,1,1,.19l-.15.47a1.76,1.76,0,0,0-.85-.18c-.61,0-.83.39-.82.7s.3.61.92.83,1.16.61,1.18,1.27-.46,1.3-1.51,1.34a2.36,2.36,0,0,1-1.15-.25Z" transform="translate(-72.7 -73.92)"/>
    <rect x="108.2" y="111.3" width="0.48" height="0.99" rx="0.12" ry="0.12" transform="translate(-76.63 -69.96) rotate(-2.05)"/>
    <rect x="108.38" y="116.25" width="0.48" height="0.99" rx="0.12" ry="0.12" transform="translate(-76.81 -69.95) rotate(-2.05)"/>
  </g>
</svg>
