<svg id="Layer_1" data-name="Layer 1" xmlns="http://www.w3.org/2000/svg" width="60.15mm" height="65.32mm" viewBox="0 0 170.49 185.16">
  <defs>
    <style>
      .cls-1 {
        fill: none;
      }

      .cls-1, .cls-2, .cls-3, .cls-4, .cls-5, .cls-6, .cls-7 {
        stroke: #000;
        stroke-miterlimit: 10;
      }

      .cls-1, .cls-2 {
        stroke-width: 1.5px;
      }

      .cls-2, .cls-3, .cls-6, .cls-7 {
        fill: none;
      }

      .cls-4, .cls-6 {
        stroke-width: 0.75px;
      }

      .cls-5, .cls-7 {
        stroke-width: 0.5px;
      }
    </style>
  </defs>
  <title>full_wallet_euro</title>
  <g>
    <path d="M220.38,214.81v27.4a16.19,16.19,0,0,1-16.19,16.19H98.56a16.18,16.18,0,0,1-16.18-16.19v-64.3c0-.61,0-1.57.07-2.16-.2,0-.56.3-.78.2,0,.84,0,1.28,0,2l0,64.31a16.88,16.88,0,0,0,16.86,16.87H204.19a16.89,16.89,0,0,0,16.87-16.87v-27.7A2.6,2.6,0,0,1,220.38,214.81Z" transform="translate(-72.6 -73.92)"/>
    <path d="M220.38,194.76a2.09,2.09,0,0,1,.68-.29V177.91A16.89,16.89,0,0,0,204.19,161H101.48c0,.23.07.45.09.68H204.19a16.19,16.19,0,0,1,16.19,16.19Z" transform="translate(-72.6 -73.92)"/>
    <path d="M219.69,214.91v27.3a15.52,15.52,0,0,1-15.5,15.51H98.56a15.52,15.52,0,0,1-15.5-15.51l0-64.27v-1.72c-.22-.08-.5-.41-.71-.49-.07.59,0,1.57,0,2.18v64.3A16.18,16.18,0,0,0,98.56,258.4H204.19a16.19,16.19,0,0,0,16.19-16.19v-27.4A3,3,0,0,1,219.69,214.91Z" transform="translate(-72.6 -73.92)"/>
    <path d="M219.69,195.38a2.28,2.28,0,0,1,.69-.62V177.91a16.19,16.19,0,0,0-16.19-16.19H101.57c0,.23,0,.46.05.68H204.19a15.52,15.52,0,0,1,15.5,15.51Z" transform="translate(-72.6 -73.92)"/>
    <path d="M100.89,161.72h.68c0-.23-.06-.45-.09-.68h-.68C100.83,161.27,100.87,161.49,100.89,161.72Z" transform="translate(-72.6 -73.92)"/>
    <path d="M100.94,162.4h.68c0-.22,0-.45-.05-.68h-.68C100.92,162,100.93,162.18,100.94,162.4Z" transform="translate(-72.6 -73.92)"/>
    <path d="M100.21,161.72h.68c0-.23-.06-.45-.09-.68h-.7C100.14,161.27,100.18,161.49,100.21,161.72Z" transform="translate(-72.6 -73.92)"/>
    <path d="M100.25,162.4h.69c0-.22,0-.45,0-.68h-.68C100.23,162,100.24,162.18,100.25,162.4Z" transform="translate(-72.6 -73.92)"/>
  </g>
  <path class="cls-1" d="M100.8,161.73c-2.84,0-6.71.16-9.42-.84a4.34,4.34,0,0,1-2.53-2.16,4.25,4.25,0,0,1-.17-2.64,8.35,8.35,0,0,1,4-5.8" transform="translate(-72.6 -73.92)"/>
  <g>
    <path d="M228.77,164.69a3.05,3.05,0,0,1-.34.61v25.23a2.34,2.34,0,0,1,.72.31V165.15c0-.34,0-.68-.05-1A2.12,2.12,0,0,1,228.77,164.69Z" transform="translate(-72.6 -73.92)"/>
    <path d="M95,148.85c-7.65,1.91-13.31,8.48-13.31,16.3l0,12.09h.72l0-12.09c0-7.58,5.51-13.92,13-15.69A2.34,2.34,0,0,1,95,148.85Z" transform="translate(-72.6 -73.92)"/>
    <path d="M111.54,148.28a2.88,2.88,0,0,1-.34.68h10a3.14,3.14,0,0,1,.13-.68Z" transform="translate(-72.6 -73.92)"/>
    <path d="M228.43,208v21.47c0,8.94.14,18.86-9.32,18.86V249c9.84,0,10-10.24,10-19.54V207A2.61,2.61,0,0,1,228.43,208Z" transform="translate(-72.6 -73.92)"/>
    <path d="M95.37,149.46c-7.44,1.77-13,8.11-13,15.69l0,12.09h.72l0-12.09c0-7.42,5.54-13.63,12.91-15.15A2.39,2.39,0,0,1,95.37,149.46Z" transform="translate(-72.6 -73.92)"/>
    <path d="M110.53,149.64h10.71a3.84,3.84,0,0,1,0-.68h-10A2.55,2.55,0,0,1,110.53,149.64Z" transform="translate(-72.6 -73.92)"/>
    <path d="M228.39,165.33a2.85,2.85,0,0,1-.68,1.6v23.5a2.72,2.72,0,0,1,.72.1V165.3Z" transform="translate(-72.6 -73.92)"/>
    <path d="M227.71,208.39v21.06c0,8.55.45,18.18-8.6,18.18v.68c9.46,0,9.32-9.92,9.32-18.86V208A2.54,2.54,0,0,1,227.71,208.39Z" transform="translate(-72.6 -73.92)"/>
  </g>
  <path class="cls-2" d="M228.43,207.49a17.92,17.92,0,0,0,0-18.06l-8.05,6-37.81,1.23a4.93,4.93,0,0,0-4.13,2.42c-1.36,2.32-2.57,6.37-.39,12.32a4.86,4.86,0,0,0,4.57,3.14h37.76Z" transform="translate(-72.6 -73.92)"/>
  <circle class="cls-3" cx="114.98" cy="131.65" r="3.13"/>
  <path d="M123.17,161.84l-5.84-56.54,49.6-5.12L173.31,162a3.08,3.08,0,0,1,.68-.08l-6.42-62.15,0-.34-50.62,5.22-.33,0,5.88,57A3.31,3.31,0,0,1,123.17,161.84Z" transform="translate(-72.6 -73.92)"/>
  <path class="cls-3" d="M126.09,161.23c.14,0,.26,0,.39,0L122.9,119.9a2,2,0,0,1-.56.09h0l3.57,41.26Z" transform="translate(-72.6 -73.92)"/>
  <path class="cls-3" d="M165.58,115.05h0a3,3,0,0,1-.55.19l5.1,45.87a1.48,1.48,0,0,1,.54-.25Z" transform="translate(-72.6 -73.92)"/>
  <path class="cls-4" d="M165,115.26c-10,2.35-13.38-7.92-13.52-8.36l-.15-.47-17.87,1.93,0,.52c0,.39-.69,9.62-11.1,11l.15,1.23a13.43,13.43,0,0,0,12.06-11.65l16-1.73c.85,2.18,5,11,14.77,8.71A2.91,2.91,0,0,1,165,115.26Z" transform="translate(-72.6 -73.92)"/>
  <path class="cls-3" d="M163.07,144.65a21.08,21.08,0,0,0-16.63-5.59,21.9,21.9,0,0,0-15.29,9.1,26.4,26.4,0,0,0-4.87,12.39,2.91,2.91,0,0,1,.6.06,25.6,25.6,0,0,1,4.72-12,21.33,21.33,0,0,1,14.9-8.86c.4-.05.8-.08,1.2-.1a20.6,20.6,0,0,1,15,5.54,24.39,24.39,0,0,1,6.62,10.4,2.93,2.93,0,0,1,.39-.69A24.93,24.93,0,0,0,163.07,144.65Z" transform="translate(-72.6 -73.92)"/>
  <path d="M209.57,119.24a3.08,3.08,0,0,1,0,.74l32.65,15.46-21.74,45.9a2.74,2.74,0,0,1,.23,1.1l22.27-47,.14-.31Z" transform="translate(-72.6 -73.92)"/>
  <path class="cls-5" d="M220.14,174l13.5-28.7h0a1.89,1.89,0,0,1-.51-.12l-13.22,28.11C220,173.56,220.08,173.8,220.14,174Z" transform="translate(-72.6 -73.92)"/>
  <path class="cls-5" d="M226.6,132.32l.11-.43-14.78-7-.27.39a11.54,11.54,0,0,1-2.88,2.67,3,3,0,0,1,0,1.2,13.88,13.88,0,0,0,3.46-2.87l13.21,6.26c-.38,2.09-1.41,10.91,7.31,13.77a2.69,2.69,0,0,1,.34-1.06C224.22,142.29,226.5,132.73,226.6,132.32Z" transform="translate(-72.6 -73.92)"/>
  <path class="cls-5" d="M217.6,167.05a19.67,19.67,0,0,0-10.66-12.49,19.34,19.34,0,0,0-2.67-1,3.07,3.07,0,0,1,0,.68,17.43,17.43,0,0,1,2.41.89c.35.16.68.32,1,.5A19.22,19.22,0,0,1,216.93,167a2.65,2.65,0,0,1,1.07,2.05.94.94,0,0,1,.1.1A19.37,19.37,0,0,0,217.6,167.05Z" transform="translate(-72.6 -73.92)"/>
  <path d="M163.35,88.12l-2,12.31a2.6,2.6,0,0,1,.67.15l1.92-11.68L213.11,97l-10.65,64.62.7-.07,10.67-64.77.06-.34Z" transform="translate(-72.6 -73.92)"/>
  <path class="cls-3" d="M199.63,161.29l7.65-50.39a3.73,3.73,0,0,1-.48,0h-.1l-7.61,50.12A2.21,2.21,0,0,1,199.63,161.29Z" transform="translate(-72.6 -73.92)"/>
  <path class="cls-4" d="M206.45,110.86c-10.28-.32-10.88-11.11-10.9-11.57l0-.5L177.76,96l-.17.49a12.14,12.14,0,0,1-9.59,7.74c0,.11,0,.23,0,.34a3.62,3.62,0,0,1,.16.86,13.53,13.53,0,0,0,10.36-8.07l15.89,2.47c.25,2.32,1.93,11.94,12,12.22A3,3,0,0,1,206.45,110.86Z" transform="translate(-72.6 -73.92)"/>
  <path class="cls-3" d="M198.23,160.91a2.53,2.53,0,0,1,.56.06s.06-.1.11-.13a32.5,32.5,0,0,0-3.85-14.41c-3.66-6.5-9.31-10.54-15.93-11.38a20.61,20.61,0,0,0-7.69.54,3,3,0,0,1,.15.85A20,20,0,0,1,179,136c.44.05.87.12,1.3.21,5.89,1.14,10.91,5,14.23,10.87a31.53,31.53,0,0,1,3.74,13.88Z" transform="translate(-72.6 -73.92)"/>
  <circle class="cls-6" cx="11.96" cy="40.88" r="11.59"/>
  <circle class="cls-6" cx="11.96" cy="40.88" r="9.59"/>
  <circle class="cls-6" cx="30.48" cy="66.89" r="11.59"/>
  <circle class="cls-6" cx="30.48" cy="66.89" r="9.59"/>
  <circle class="cls-6" cx="30.48" cy="11.96" r="11.59"/>
  <circle class="cls-6" cx="30.48" cy="11.96" r="9.59"/>
  <circle class="cls-7" cx="35.95" cy="40.26" r="5.73"/>
  <circle class="cls-7" cx="35.95" cy="40.26" r="4.75"/>
  <g>
    <path d="M89.4,118.92a6.48,6.48,0,0,1-2.51,1,4.73,4.73,0,0,1-6-4A5,5,0,0,1,85,109.68a5.56,5.56,0,0,1,2.45-.06l-.09,1.11a4.83,4.83,0,0,0-2.08,0c-2.32.49-3.55,2.3-3,4.9.51,2.43,2.24,3.69,4.65,3.18a5.3,5.3,0,0,0,2-.86Z" transform="translate(-72.6 -73.92)"/>
    <rect x="79.72" y="113.95" width="7.45" height="1.21" rx="0.3" ry="0.3" transform="translate(-94.54 -54.13) rotate(-11.96)"/>
    <rect x="80.14" y="115.93" width="7.45" height="1.21" rx="0.3" ry="0.3" transform="translate(-94.94 -54) rotate(-11.96)"/>
  </g>
  <g>
    <path d="M104,91.4a6.23,6.23,0,0,1-2.39-1,4.52,4.52,0,0,1-1.34-6.71,4.81,4.81,0,0,1,7-1.51,5.19,5.19,0,0,1,1.7,1.62l-.81.69a4.5,4.5,0,0,0-1.42-1.4c-1.9-1.24-4-.85-5.34,1.28s-1,4,1,5.29a5,5,0,0,0,1.93.78Z" transform="translate(-72.6 -73.92)"/>
    <rect x="99.32" y="83.84" width="7.13" height="1.15" rx="0.3" ry="0.3" transform="matrix(0.84, 0.55, -0.55, 0.84, -9.95, -116.36)"/>
    <rect x="98.26" y="85.47" width="7.13" height="1.15" rx="0.3" ry="0.3" transform="translate(-9.23 -115.52) rotate(33.04)"/>
  </g>
  <g>
    <path d="M100,145.93a6,6,0,0,1-1.25-2.27,4.52,4.52,0,0,1,3.11-6.1,4.81,4.81,0,0,1,6.43,3.16,5.29,5.29,0,0,1,.33,2.32l-1.07,0a4.45,4.45,0,0,0-.24-2c-.72-2.15-2.58-3.12-5-2.3-2.24.75-3.25,2.53-2.5,4.76a5,5,0,0,0,1,1.81Z" transform="translate(-72.6 -73.92)"/>
    <rect x="99.96" y="139.21" width="7.13" height="1.15" rx="0.3" ry="0.3" transform="translate(130.27 -76.91) rotate(71.36)"/>
    <rect x="98.12" y="139.83" width="7.13" height="1.15" rx="0.3" ry="0.3" transform="translate(129.61 -74.75) rotate(71.36)"/>
  </g>
  <g>
    <path d="M111.48,113.69a3.07,3.07,0,0,1-.37,1.25,2.27,2.27,0,0,1-3.27,1.06,2.42,2.42,0,0,1-1.16-3.41,2.55,2.55,0,0,1,.71-.94l.39.36a2.39,2.39,0,0,0-.62.79,1.81,1.81,0,0,0,1,2.6,1.77,1.77,0,0,0,2.58-.81,2.46,2.46,0,0,0,.27-1Z" transform="translate(-72.6 -73.92)"/>
    <rect x="106.26" y="114.34" width="3.58" height="0.58" rx="0.29" ry="0.29" transform="translate(-115.24 86.64) rotate(-63.64)"/>
    <rect x="107.14" y="114.77" width="3.58" height="0.58" rx="0.29" ry="0.29" transform="translate(-115.14 87.67) rotate(-63.64)"/>
  </g>
</svg>
