<?xml version="1.0" encoding="utf-8"?>
<!-- Generator: Adobe Illustrator 22.0.1, SVG Export Plug-In . SVG Version: 6.00 Build 0)  -->
<svg version="1.1" id="Layer_1" xmlns="http://www.w3.org/2000/svg" xmlns:xlink="http://www.w3.org/1999/xlink" x="0px" y="0px"
	 viewBox="0 0 144 144" style="enable-background:new 0 0 144 144;" xml:space="preserve">
<style type="text/css">
	.st0{fill:#FFFFFF;}
</style>
<g>
	<path class="st0" d="M86.5,27c2.9,0.7,5.5,1.8,8,3.2c2.4,1.4,4.6,3.2,6.5,5.3c1.9,2.1,3.2,4.5,3.9,7.2h2.2V26.3
		c-1.3,0-2.6-0.2-3.8-0.6c-1.2-0.4-2.5-1-3.8-1.7c-2.3-1.2-5.1-2.3-8.4-3.6c-3.1-1.1-7-1.7-11.8-1.8v7.3C81.5,26,84,26.3,86.5,27z"
		/>
	<path class="st0" d="M108.3,86.1c-0.3,2-1.2,4.1-2.6,6.4c-1.4,2.2-3.3,4.3-5.7,6.2c-2.4,1.9-5.3,3.4-8.6,4.5
		c-3.4,1.2-7.1,1.7-11.1,1.7c-0.3,0-0.7,0-1,0v7.4c0.2,0,0.4,0,0.6,0c6,0,10.9-0.8,14.7-2.3c3.7-1.5,6.8-3,9.3-4.4
		c1.3-0.7,2.4-1.3,3.5-1.8c1-0.5,2.1-0.8,3.2-0.8V86.1H108.3z"/>
	<g>
		<path class="st0" d="M59.7,101.2c-4.6-2.4-8.5-5.7-11.8-9.7c-3.2-4-5.7-8.6-7.4-13.7c-1.7-5.1-2.6-10.3-2.6-15.7
			c0-4.6,0.7-9.1,2.2-13.4c1.4-4.3,3.6-8.2,6.5-11.6c2.9-3.4,6.5-6.1,11-8.2c4.5-2.1,9.6-3.1,15.5-3.1c0.4,0,0.8,0,1.1,0v-7.3
			c-0.4,0-0.7,0-1.1,0c-7.8,0-14.7,1.3-20.8,3.9c-6.1,2.6-11.3,6-15.4,10.4c-4.2,4.3-7.4,9.3-9.6,14.9c-2.2,5.6-3.3,11.5-3.3,17.7
			c0,6.6,1.3,12.8,3.8,18.5c2.5,5.7,6,10.7,10.6,14.9c4.5,4.2,9.9,7.6,16.2,9.9c6.1,2.3,12.7,3.5,19.8,3.6v-7.4
			C68.8,104.7,64,103.5,59.7,101.2z"/>
	</g>
	<g>
		<path class="st0" d="M116,120.4v1.4H95.1v-1.4h0.7c2.3,0,3.4-1,3.4-3.1c0-0.8-0.1-1.6-0.4-2.4L86,80.5H61.4l1.5-4.8h21.5
			l-7.1-19.2l0-0.1l-1-2.8l-2.8-7.5l0,0.1l-2.3-6.1l5-13.4l31.7,85.5c0.7,1.9,1.6,3.7,2.8,5.5c1.2,1.8,2.7,2.7,4.6,2.7H116z"/>
	</g>
	<g>
		<path class="st0" d="M73.5,46.2l-2.3-6.1l5-13.4l31.7,85.5c0.7,1.9,1.6,3.7,2.8,5.5c1.2,1.8,2.7,2.7,4.6,2.7h0.7v1.4H95.1v-1.4
			h0.7c2.3,0,3.4-1,3.4-3.1c0-0.8-0.1-1.6-0.4-2.4L86,80.5H61.4l1.5-4.8h21.5l-7.1-19.2l0-0.1l-1-2.8"/>
	</g>
	<path class="st0" d="M50.6,119.6c-0.7-0.7-1-1.7-1-2.9c0-0.7,0.1-1.4,0.4-2.1l1.6-4.3l-4.8-1.8l-1.8,4.8c-0.8,2-1.7,3.7-2.9,5.1
		c-1.2,1.5-2.4,2.2-3.6,2.2h-0.7v1.4h15.6v-1.4h-0.7C52,120.6,51.3,120.3,50.6,119.6z"/>
</g>
</svg>
