<?xml version="1.0" encoding="utf-8"?>
<!-- Generator: Adobe Illustrator 22.0.1, SVG Export Plug-In . SVG Version: 6.00 Build 0)  -->
<svg version="1.1" id="Layer_1" xmlns="http://www.w3.org/2000/svg" xmlns:xlink="http://www.w3.org/1999/xlink" x="0px" y="0px"
	 viewBox="0 0 144 144" style="enable-background:new 0 0 144 144;" xml:space="preserve">
<style type="text/css">
	.st0{fill:#020202;}
</style>
<symbol id="AforC-sm">
<g>
	<path class="AforC-svg" d="M88.2,17.1c3.5,0.9,6.7,2.2,9.6,3.9c2.9,1.7,5.5,3.9,7.8,6.4c2.2,2.5,3.8,5.4,4.7,8.7h2.6V16.3
		c-1.6,0-3.1-0.3-4.5-0.8c-1.5-0.5-3-1.2-4.5-2.1c-2.8-1.4-6.1-2.8-10.1-4.3C89.9,7.8,85.2,7.1,79.4,7v8.8
		C82.3,15.9,85.2,16.4,88.2,17.1z"/>
	<path class="AforC-svg" d="M114.4,88.2c-0.3,2.4-1.4,5-3.1,7.7c-1.7,2.7-4,5.2-6.9,7.4c-2.9,2.3-6.3,4.1-10.4,5.5
		c-4.1,1.4-8.5,2.1-13.4,2.1c-0.4,0-0.8,0-1.2,0v8.8c0.2,0,0.5,0,0.7,0c7.3,0,13.1-0.9,17.6-2.7c4.5-1.8,8.2-3.6,11.2-5.3
		c1.6-0.9,2.9-1.6,4.2-2.2c1.2-0.6,2.5-0.9,3.9-0.9V88.2H114.4z"/>
	<g>
		<path class="AforC-svg" d="M56,106.4c-5.5-2.9-10.3-6.8-14.1-11.7c-3.9-4.8-6.9-10.3-9-16.5c-2.1-6.1-3.1-12.4-3.1-18.8
			c0-5.5,0.9-10.9,2.6-16.1c1.7-5.2,4.3-9.8,7.8-13.9c3.5-4.1,7.9-7.4,13.2-9.9c5.4-2.5,11.6-3.8,18.7-3.8c0.5,0,0.9,0,1.4,0V7
			c-0.5,0-0.9,0-1.4,0c-9.3,0-17.7,1.6-25,4.7c-7.4,3.1-13.5,7.3-18.6,12.5c-5,5.2-8.9,11.2-11.6,17.9c-2.7,6.7-4,13.8-4,21.3
			c0,8,1.5,15.4,4.5,22.2c3,6.8,7.3,12.8,12.7,17.9c5.5,5.1,11.9,9.1,19.5,11.9c7.3,2.8,15.3,4.2,23.8,4.3v-8.8
			C67,110.6,61.2,109.2,56,106.4z"/>
	</g>
	<g>
		<path class="AforC-svg" d="M123.7,129.4v1.7H98.5v-1.7h0.9c2.7,0,4.1-1.3,4.1-3.7c0-0.9-0.2-1.9-0.5-2.9L87.6,81.5H58l1.9-5.8h25.9
			l-8.5-23.1l0-0.1L76,49.1l-3.3-9l-0.1,0.2l-2.8-7.3l6.1-16.1L114,119.6c0.8,2.3,1.9,4.5,3.3,6.6c1.4,2.2,3.3,3.2,5.5,3.2H123.7z"
			/>
	</g>
	<g>
		<path class="AforC-svg" d="M72.6,40.3l-2.8-7.3l6.1-16.1L114,119.6c0.8,2.3,1.9,4.5,3.3,6.6c1.4,2.2,3.3,3.2,5.5,3.2h0.9v1.7H98.5v-1.7
			h0.9c2.7,0,4.1-1.3,4.1-3.7c0-0.9-0.2-1.9-0.5-2.9L87.6,81.5H58l1.9-5.8h25.9l-8.5-23.1l0-0.1L76,49.1"/>
	</g>
	<path class="AforC-svg" d="M45.1,128.4c-0.8-0.8-1.2-2-1.2-3.5c0-0.8,0.2-1.6,0.5-2.5l1.9-5.2l-5.8-2.1l-2.2,5.8
		c-0.9,2.4-2.1,4.4-3.5,6.2c-1.4,1.7-2.8,2.6-4.3,2.6h-0.8v1.7h18.7v-1.7h-0.8C46.7,129.7,45.9,129.3,45.1,128.4z"/>
</g>
</symbol>
</svg>
