<?xml version="1.0" encoding="utf-8"?>
<!-- Generator: Adobe Illustrator 23.0.1, SVG Export Plug-In . SVG Version: 6.00 Build 0)  -->
<svg version="1.1" id="Layer_1" xmlns="http://www.w3.org/2000/svg" xmlns:xlink="http://www.w3.org/1999/xlink" x="0px" y="0px"
	 viewBox="0 0 138.2 63" style="enable-background:new 0 0 138.2 63;" xml:space="preserve">
<style type="text/css">
	.st0{font-family:'MyriadPro-Regular';}
	.st1{font-size:26.8477px;}
	.st2{font-size:6.3171px;}
</style>
<g>
	<text transform="matrix(1 0 0 1 30.6624 39.6178)" class="st0 st1">A for C</text>
	<g>
		<text transform="matrix(1 0 0 1 54.9891 61.3122)" class="st0 st2">Design CO </text>
		<g>
			<polygon points="133.5,2.8 6.2,0.6 5.2,57.5 50.3,58.3 50.3,58.1 5.4,57.4 6.4,0.8 133.3,2.9 132.3,59.5 87.3,58.1 87.3,58.2 
				132.5,59.7 			"/>
			<polygon points="137.7,57.2 131.1,0.7 131.1,0.6 0.8,3.3 0.7,3.3 7.3,59.8 7.3,59.9 50.3,58.3 50.3,58.1 7.4,59.7 0.9,3.4 
				131,0.8 137.5,57 87.3,58.1 87.3,58.2 137.6,57.2 			"/>
		</g>
	</g>
</g>
</svg>
