<?xml version="1.0" encoding="utf-8"?>
<!-- Generator: Adobe Illustrator 22.0.1, SVG Export Plug-In . SVG Version: 6.00 Build 0)  -->
<svg version="1.1" id="Layer_1" xmlns="http://www.w3.org/2000/svg" xmlns:xlink="http://www.w3.org/1999/xlink" x="0px" y="0px"
	 viewBox="0 0 144 144" style="enable-background:new 0 0 144 144;" xml:space="preserve">
<style type="text/css">
	.st0{fill:none;stroke:#000000;stroke-width:0.25;stroke-miterlimit:10;}
	.st1{fill:#020202;}
</style>
<rect x="8.6" y="17.1" class="st0" width="126.3" height="105.9"/>
<rect x="6.9" y="17.3" transform="matrix(0.9975 -7.070444e-02 7.070444e-02 0.9975 -4.7699 5.2443)" class="st0" width="129.6" height="105.3"/>
<g>
	<path class="st1" d="M81,45.7c1.6,0.4,3.1,1,4.5,1.8c1.4,0.8,2.6,1.8,3.6,3c1,1.2,1.8,2.5,2.2,4.1h1.2v-9.2c-0.7,0-1.4-0.1-2.1-0.4
		c-0.7-0.2-1.4-0.6-2.1-1c-1.3-0.6-2.9-1.3-4.7-2c-1.7-0.6-3.9-1-6.6-1v4.1C78.2,45.1,79.6,45.3,81,45.7z"/>
	<path class="st1" d="M93.2,78.9c-0.2,1.1-0.6,2.3-1.5,3.6c-0.8,1.3-1.9,2.4-3.2,3.5c-1.3,1.1-3,1.9-4.9,2.5c-1.9,0.6-4,1-6.2,1
		c-0.2,0-0.4,0-0.6,0v4.1c0.1,0,0.2,0,0.3,0c3.4,0,6.1-0.4,8.2-1.3c2.1-0.8,3.8-1.7,5.2-2.5c0.7-0.4,1.4-0.7,1.9-1
		c0.6-0.3,1.2-0.4,1.8-0.4v-9.5H93.2z"/>
	<g>
		<path class="st1" d="M65.9,87.4c-2.6-1.4-4.8-3.2-6.6-5.5c-1.8-2.3-3.2-4.8-4.2-7.7c-1-2.9-1.5-5.8-1.5-8.8c0-2.6,0.4-5.1,1.2-7.5
			c0.8-2.4,2-4.6,3.6-6.5c1.6-1.9,3.7-3.4,6.2-4.6c2.5-1.2,5.4-1.8,8.7-1.8c0.2,0,0.4,0,0.6,0v-4.1c-0.2,0-0.4,0-0.6,0
			c-4.4,0-8.3,0.7-11.7,2.2c-3.4,1.5-6.3,3.4-8.7,5.8c-2.3,2.4-4.1,5.2-5.4,8.4c-1.3,3.2-1.9,6.5-1.9,9.9c0,3.7,0.7,7.2,2.1,10.4
			c1.4,3.2,3.4,6,5.9,8.4c2.5,2.4,5.6,4.2,9.1,5.6c3.4,1.3,7.1,2,11.1,2v-4.1C71.1,89.4,68.4,88.7,65.9,87.4z"/>
	</g>
	<g>
		<path class="st1" d="M97.6,98.2v0.8H85.8v-0.8h0.4c1.3,0,1.9-0.6,1.9-1.8c0-0.4-0.1-0.9-0.2-1.3l-7.2-19.3H66.9l0.9-2.7h12.1
			l-4-10.8l0,0l-0.6-1.6l-1.6-4.2l0,0.1l-1.3-3.4l2.8-7.5l17.8,48c0.4,1.1,0.9,2.1,1.6,3.1c0.7,1,1.5,1.5,2.6,1.5H97.6z"/>
	</g>
	<g>
		<path class="st1" d="M73.7,56.5l-1.3-3.4l2.8-7.5l17.8,48c0.4,1.1,0.9,2.1,1.6,3.1c0.7,1,1.5,1.5,2.6,1.5h0.4v0.8H85.8v-0.8h0.4
			c1.3,0,1.9-0.6,1.9-1.8c0-0.4-0.1-0.9-0.2-1.3l-7.2-19.3H66.9l0.9-2.7h12.1l-4-10.8l0,0l-0.6-1.6"/>
	</g>
	<path class="st1" d="M60.9,97.7c-0.4-0.4-0.6-0.9-0.6-1.6c0-0.4,0.1-0.8,0.2-1.2l0.9-2.4l-2.7-1l-1,2.7c-0.4,1.1-1,2.1-1.6,2.9
		c-0.7,0.8-1.3,1.2-2,1.2h-0.4v0.8h8.8v-0.8H62C61.6,98.3,61.2,98.1,60.9,97.7z"/>
</g>
</svg>
