<?xml version="1.0" encoding="utf-8"?>
<!-- Generator: Adobe Illustrator 23.0.1, SVG Export Plug-In . SVG Version: 6.00 Build 0)  -->
<svg version="1.1" id="Layer_1" xmlns="http://www.w3.org/2000/svg" xmlns:xlink="http://www.w3.org/1999/xlink" x="0px" y="0px"
	 viewBox="0 0 111 54.4" style="enable-background:new 0 0 111 54.4;" xml:space="preserve">
<style type="text/css">
	.st0{fill:none;}
</style>
<g id="paintbrush">
	<polygon class="st0" points="1.4,39.7 1.4,40.7 2.3,40.3 	"/>
	<path class="st0" d="M8.8,12.3l-7.4,1.1v0.5v25.2l2,1.2l-2,1v10.6l47.5,1.2c0.1,0,0.1,0,0.2,0c3.8,0,7.1-2.7,7.8-6.3
		c0.3-1.6,0.4-3.5,0.2-5.6c-0.3-3,0.4-5.3,2.1-6.8c3.5-3.1,9.8-1.9,10.1-1.9c0.3,0,1.2,0.2,3.3,0.6c6.5,1.3,21.8,4.4,31.3,1.6
		c4.6-1.4,5.7-2.7,5.8-3.6c0.2-1.1-1.1-2.1-2.2-2.9c-1.9-1.3-4.4-2-7-2.1l-18.6-0.8c-0.8,0-1.5,0-2.3,0c-5.1,0.1-21.8-0.7-22.6-12.1
		c-0.3-4.7-3.3-8.7-7.9-10.7c-3.2-1.4-6.6-1.5-8.3-0.1c-1.1,0.9-1.5,2.3-1.2,4.1c1.6,8.5,2,35.1,0.5,37c-2.2,2.9-5.8,3-8.4,2.1
		c-2.6-0.8-4.4-2.5-4.5-4.2c-0.1-2.7-0.3-15.2-0.6-37.2c0-0.6,0-1.2,0-1.5L1.4,2.9v7.5v0.5L8.8,12.3z"/>
	<polygon class="st0" points="1.4,11.5 4.3,12.3 1.4,12.9 5.7,12.3 	"/>
	<path d="M108,27.4c-2.1-1.4-4.7-2.2-7.5-2.3L82,24.3c-0.8,0-1.6,0-2.4,0c-4.9,0-20.8-0.6-21.6-11.2c-0.3-5-3.5-9.4-8.5-11.6
		c-3.6-1.6-7.3-1.6-9.3,0c-1,0.8-2,2.3-1.5,5c1.7,9.4,1.7,34.7,0.7,36.2c-2.4,3.1-6.2,2.1-7.3,1.8c-2.1-0.7-3.7-2.1-3.8-3.2
		c-0.1-2.7-0.3-15.2-0.6-37.1c0-2.2,0-2.2-0.2-2.4l-0.1-0.2l-27,0.3v8.2l1,0.3V2.9l25.3-0.2c0,0.3,0,0.9,0,1.5
		c0.3,21.9,0.5,34.4,0.6,37.2c0.1,1.6,1.9,3.3,4.5,4.2c2.6,0.8,6.2,0.7,8.4-2.1c1.4-1.8,1-28.5-0.5-37c-0.3-1.8,0.1-3.2,1.2-4.1
		C42.6,1,46,1.1,49.2,2.5c4.6,2,7.6,6,7.9,10.7c0.8,11.4,17.5,12.2,22.6,12.1c0.8,0,1.5,0,2.3,0l18.6,0.8c2.6,0.1,5,0.9,7,2.1
		c1.1,0.7,2.3,1.8,2.2,2.9c-0.1,0.9-1.2,2.2-5.8,3.6c-9.5,2.9-24.7-0.3-31.3-1.6c-2.1-0.4-3-0.6-3.3-0.6c-0.3-0.1-6.6-1.3-10.1,1.9
		c-1.7,1.5-2.4,3.8-2.1,6.8c0.2,2.1,0.1,4-0.2,5.6c-0.7,3.6-4,6.3-7.8,6.3c-0.1,0-0.1,0-0.2,0L1.4,51.9V41.3l-1,0.5v11l48.5,1.3
		c0.1,0,0.2,0,0.2,0c4.3,0,8-3,8.8-7.1c0.3-1.7,0.4-3.7,0.2-5.9c-0.3-2.7,0.4-4.7,1.8-6c3.1-2.8,9.1-1.6,9.3-1.6
		c0.3,0,1.7,0.3,3.2,0.6c6.6,1.3,22,4.5,31.8,1.6c4.2-1.3,6.3-2.7,6.5-4.4C110.9,30,110,28.7,108,27.4z"/>
	<polygon points="1.4,13.9 0.4,14.1 0.4,38.4 1.4,39.1 	"/>
	<polygon points="1.4,10.4 0.4,10.1 0.4,10.6 1.4,10.9 	"/>
	<polygon points="1.4,13.4 0.4,13.6 0.4,14.1 1.4,13.9 	"/>
	<polygon points="8.8,12.3 1.4,10.9 1.4,11.5 5.7,12.3 1.4,12.9 1.4,13.4 	"/>
	<polygon points="0.4,10.6 0.4,11.2 1.4,11.5 1.4,10.9 	"/>
	<polygon points="1.4,12.9 0.4,13.1 0.4,13.6 1.4,13.4 	"/>
	<polygon points="1.4,39.1 1.4,39.7 2.3,40.3 1.4,40.7 1.4,41.3 3.4,40.3 	"/>
	<polygon points="1.4,39.7 1.4,39.1 0.4,38.4 0.4,39 	"/>
	<polygon points="1.4,40.7 0.4,41.3 0.4,41.9 1.4,41.3 	"/>
</g>
</svg>
