<svg id="svg" version="1.1" xmlns="http://www.w3.org/2000/svg"
     viewBox="0, 0, 400,127.27272727272728"><g id="svgg"><path id="path0" d="M164.157 6.846 C 163.098 6.918,161.298 7.092,160.157 7.233 C 159.017 7.375,156.735 7.649,155.087 7.843 C 152.065 8.199,150.173 8.662,148.667 9.413 C 147.907 9.792,147.191 10.040,145.083 10.652 C 144.281 10.886,143.658 11.206,143.087 11.679 C 142.630 12.057,141.553 12.696,140.692 13.098 C 139.812 13.509,138.897 14.073,138.602 14.385 C 138.314 14.691,137.535 15.226,136.871 15.575 C 135.981 16.043,135.505 16.425,135.062 17.029 C 134.732 17.479,134.188 18.029,133.855 18.250 C 133.522 18.471,132.907 19.087,132.487 19.618 C 132.067 20.149,131.445 20.773,131.105 21.004 C 130.765 21.235,130.195 21.887,129.838 22.451 C 129.481 23.016,128.990 23.608,128.746 23.768 C 128.478 23.944,128.041 24.609,127.641 25.451 C 127.257 26.259,126.603 27.266,126.083 27.848 C 125.446 28.562,125.087 29.155,124.839 29.900 C 124.509 30.892,123.989 31.830,122.965 33.278 C 122.709 33.640,122.361 34.530,122.161 35.333 C 121.967 36.112,121.740 37.018,121.656 37.346 C 121.573 37.674,121.200 38.395,120.829 38.948 C 120.213 39.865,120.108 40.187,119.643 42.602 C 119.363 44.058,118.801 46.256,118.395 47.486 C 116.927 51.933,116.335 60.846,116.820 71.167 C 117.138 77.908,117.362 79.359,118.650 82.997 C 118.925 83.775,119.274 85.125,119.425 85.997 C 119.801 88.165,120.254 89.670,120.752 90.403 C 121.395 91.351,121.833 92.281,121.835 92.702 C 121.842 93.771,122.560 95.467,123.478 96.577 C 123.846 97.023,124.354 97.942,124.614 98.634 C 124.964 99.567,125.322 100.144,126.019 100.901 C 126.534 101.460,127.134 102.271,127.353 102.703 C 128.282 104.539,135.172 111.665,136.280 111.936 C 136.538 111.999,137.221 112.489,137.798 113.025 C 138.374 113.561,138.937 114.001,139.048 114.002 C 139.396 114.006,141.076 114.921,142.016 115.620 C 142.926 116.297,143.612 116.593,145.400 117.086 C 145.941 117.235,147.066 117.659,147.900 118.028 C 150.134 119.017,152.079 119.378,160.500 120.366 C 162.537 120.605,167.674 120.603,169.500 120.361 C 177.422 119.314,178.819 119.026,180.583 118.076 C 181.133 117.780,182.183 117.332,182.917 117.080 C 184.285 116.611,184.778 116.332,185.890 115.397 C 186.242 115.101,187.064 114.578,187.716 114.235 C 188.369 113.893,189.200 113.285,189.563 112.886 C 189.927 112.487,190.585 111.938,191.027 111.666 C 191.469 111.394,192.089 110.814,192.404 110.377 C 193.089 109.430,193.362 109.248,194.338 109.083 C 194.745 109.014,195.356 108.860,195.694 108.740 C 196.495 108.458,196.670 108.707,197.169 110.846 C 197.370 111.710,197.670 112.979,197.834 113.667 C 198.271 115.499,199.750 118.431,200.490 118.935 C 201.747 119.788,211.337 119.453,212.227 118.524 L 212.655 118.077 212.703 97.580 C 212.739 82.034,212.799 76.975,212.951 76.634 C 213.277 75.904,213.796 75.697,216.398 75.256 C 218.130 74.963,219.295 74.660,220.308 74.243 C 221.101 73.915,222.425 73.381,223.250 73.055 C 225.604 72.125,225.667 72.017,225.667 68.860 C 225.667 65.301,225.366 64.569,223.640 63.930 L 222.481 63.500 201.600 63.500 C 181.921 63.500,180.704 63.517,180.462 63.792 C 179.563 64.814,179.420 65.437,179.363 68.583 L 179.308 71.583 179.866 72.228 C 180.334 72.768,180.621 72.923,181.638 73.181 C 182.306 73.351,183.429 73.748,184.134 74.064 C 185.742 74.785,186.257 74.920,189.018 75.341 C 192.262 75.835,192.320 75.939,192.325 81.250 C 192.330 86.970,191.900 91.306,191.163 92.957 C 190.763 93.852,190.197 95.503,189.675 97.295 C 189.398 98.244,189.163 98.672,188.585 99.275 C 188.180 99.697,187.648 100.352,187.402 100.730 C 186.354 102.339,185.251 103.403,183.417 104.572 C 183.142 104.747,182.648 105.114,182.320 105.388 C 181.831 105.797,181.159 106.029,178.570 106.684 C 176.836 107.122,174.864 107.634,174.188 107.821 C 170.639 108.803,164.647 108.623,161.355 107.436 C 160.699 107.199,159.431 106.856,158.539 106.675 C 156.157 106.189,155.200 105.823,154.083 104.971 C 153.533 104.551,152.725 104.039,152.288 103.833 C 151.850 103.628,151.325 103.235,151.121 102.960 C 150.729 102.433,149.906 101.583,148.976 100.746 C 148.455 100.277,148.068 99.717,146.458 97.101 C 146.114 96.542,145.683 95.634,145.499 95.084 C 145.316 94.534,144.854 93.673,144.473 93.170 C 143.589 92.005,143.260 91.249,142.833 89.405 C 142.624 88.506,142.153 87.238,141.642 86.205 C 140.940 84.786,140.769 84.258,140.643 83.121 C 140.322 80.244,139.791 77.169,139.253 75.073 C 137.653 68.844,137.619 56.810,139.186 51.333 C 139.704 49.523,140.666 44.206,140.666 43.150 C 140.667 42.759,140.987 41.903,141.586 40.691 C 142.091 39.669,142.620 38.326,142.760 37.708 C 143.202 35.755,143.522 34.943,144.220 34.006 C 144.623 33.465,145.156 32.393,145.534 31.365 C 145.904 30.359,146.406 29.346,146.734 28.943 C 147.044 28.562,147.537 27.837,147.828 27.333 C 148.339 26.449,149.173 25.507,151.002 23.750 C 151.479 23.292,152.268 22.523,152.754 22.042 C 153.240 21.560,153.712 21.167,153.803 21.167 C 154.185 21.167,156.154 20.168,156.680 19.708 C 158.673 17.965,166.722 17.159,173.750 17.999 C 177.720 18.473,178.404 18.657,179.668 19.584 C 180.456 20.162,182.775 21.167,183.323 21.167 C 183.628 21.167,184.500 22.039,184.500 22.345 C 184.500 22.429,185.025 22.846,185.667 23.273 C 186.308 23.700,186.833 24.113,186.833 24.190 C 186.833 24.268,187.429 24.937,188.157 25.677 C 188.885 26.417,189.708 27.425,189.985 27.916 C 190.263 28.408,190.717 29.069,190.996 29.386 C 191.504 29.965,192.102 31.173,192.498 32.417 C 192.614 32.783,193.038 33.582,193.440 34.191 C 194.342 35.560,194.538 36.109,195.082 38.788 C 196.240 44.493,196.290 44.524,204.052 44.461 L 209.400 44.417 209.950 43.695 L 210.500 42.974 210.500 26.004 L 210.500 9.035 209.911 8.517 L 209.322 8.000 203.953 8.001 C 197.497 8.002,197.393 8.035,196.926 10.204 C 196.802 10.779,196.449 11.737,196.142 12.333 C 195.835 12.929,195.454 13.792,195.295 14.250 C 195.137 14.708,194.700 15.440,194.324 15.875 L 193.641 16.666 192.695 15.954 C 192.175 15.563,191.535 15.133,191.273 15.000 C 191.011 14.866,190.738 14.605,190.668 14.420 C 190.534 14.068,189.474 13.246,188.537 12.766 C 188.237 12.613,187.626 12.123,187.179 11.679 C 186.640 11.143,186.082 10.777,185.520 10.590 C 185.054 10.435,183.788 9.870,182.708 9.333 C 180.544 8.260,180.117 8.155,174.917 7.424 C 169.606 6.677,167.952 6.588,164.157 6.846 M10.614 8.514 L 9.833 9.031 9.833 24.733 L 9.833 40.435 10.311 41.187 C 11.220 42.621,11.345 42.667,14.372 42.667 L 17.032 42.667 18.342 41.986 C 20.230 41.003,20.366 40.690,20.914 36.083 C 21.209 33.605,21.723 31.001,22.182 29.667 C 22.696 28.172,23.138 26.038,23.339 24.083 C 23.807 19.517,23.857 19.500,36.629 19.500 L 45.653 19.500 46.285 20.141 C 47.009 20.876,47.213 21.130,47.477 21.625 C 47.617 21.886,47.667 32.879,47.667 63.655 L 47.667 105.333 47.125 105.881 C 46.300 106.717,46.122 106.823,44.633 107.360 C 41.406 108.524,40.663 108.701,36.693 109.253 C 32.081 109.894,31.500 110.581,31.500 115.390 L 31.500 118.271 32.011 118.760 L 32.522 119.250 57.566 119.250 L 82.609 119.250 83.430 118.743 L 84.250 118.236 84.303 115.660 L 84.355 113.083 83.650 111.735 C 82.693 109.903,82.437 109.751,79.576 109.321 C 75.550 108.716,73.899 108.374,72.808 107.918 C 72.226 107.675,71.109 107.255,70.325 106.984 C 69.502 106.700,68.674 106.287,68.366 106.006 L 67.833 105.519 67.833 63.660 C 67.833 26.519,67.862 21.741,68.087 21.275 C 68.930 19.531,69.150 19.501,80.782 19.500 L 89.815 19.500 90.366 20.173 C 90.669 20.543,91.080 21.044,91.280 21.285 C 92.182 22.375,93.091 25.751,93.671 30.167 C 93.956 32.329,94.192 33.397,94.780 35.167 C 95.191 36.404,95.661 38.099,95.824 38.933 C 96.009 39.876,96.335 40.853,96.686 41.517 L 97.250 42.583 100.333 42.583 C 104.892 42.583,105.222 42.515,105.836 41.446 L 106.330 40.583 106.332 24.823 L 106.333 9.062 105.822 8.573 L 105.311 8.083 58.353 8.040 L 11.395 7.997 10.614 8.514 " stroke="none" fill="#1c2464" fill-rule="evenodd"></path><path id="path1" d="M227.083 8.026 C 226.900 8.128,226.544 8.403,226.292 8.637 L 225.833 9.062 225.833 11.838 C 225.833 16.956,226.249 17.529,230.493 18.249 C 234.053 18.853,234.187 18.902,236.406 20.391 C 237.042 20.818,237.654 21.167,237.767 21.167 C 238.194 21.167,238.650 22.323,239.075 24.477 C 239.364 25.946,239.686 27.045,240.022 27.709 C 240.636 28.926,241.066 30.237,241.416 31.960 C 241.881 34.250,242.335 35.698,242.911 36.735 C 243.491 37.780,243.895 39.080,244.494 41.833 C 244.810 43.284,245.022 43.824,246.020 45.735 C 246.360 46.384,246.653 47.662,246.989 49.961 C 247.120 50.851,247.393 51.623,248.017 52.868 C 248.666 54.161,248.964 55.019,249.274 56.490 C 249.864 59.287,249.967 59.630,250.606 60.893 C 251.430 62.521,251.774 63.538,252.077 65.250 C 252.368 66.892,253.103 69.264,253.449 69.680 C 253.786 70.087,254.125 71.222,254.584 73.489 C 254.912 75.113,255.187 75.939,255.849 77.299 C 256.479 78.592,256.800 79.530,257.104 80.976 C 257.702 83.809,257.793 84.102,258.587 85.750 C 259.105 86.825,259.387 87.698,259.582 88.833 C 259.991 91.209,260.490 92.940,260.965 93.631 C 261.578 94.524,261.916 95.506,262.327 97.583 C 262.740 99.669,263.066 100.641,263.904 102.285 C 264.233 102.931,264.644 104.132,264.838 105.011 C 265.028 105.876,265.297 107.108,265.436 107.750 C 265.575 108.392,266.021 109.629,266.427 110.500 C 266.968 111.661,267.277 112.651,267.587 114.213 C 268.642 119.533,268.569 119.500,279.288 119.499 C 290.360 119.498,290.447 119.478,290.813 116.793 C 291.141 114.390,291.607 112.610,292.234 111.364 C 292.890 110.063,293.164 109.083,293.663 106.257 C 294.023 104.220,294.385 103.037,295.320 100.836 C 295.650 100.061,295.978 98.833,296.187 97.586 C 296.713 94.451,296.966 93.391,297.392 92.540 C 298.005 91.315,298.287 90.304,298.838 87.347 C 299.257 85.101,299.493 84.281,300.161 82.764 C 300.839 81.222,301.045 80.499,301.407 78.390 C 301.838 75.880,302.200 74.564,302.751 73.498 C 303.088 72.847,303.533 71.052,303.997 68.479 C 304.453 65.944,304.600 65.446,305.340 63.911 C 305.802 62.956,306.088 62.025,306.341 60.661 C 307.466 54.584,307.708 54.325,309.309 57.483 C 309.755 58.363,310.350 59.533,310.631 60.083 C 310.986 60.776,311.325 61.952,311.735 63.913 C 312.224 66.248,312.463 67.018,313.101 68.312 C 313.744 69.615,313.967 70.338,314.418 72.579 C 314.717 74.063,315.046 75.421,315.150 75.597 C 315.703 76.538,316.392 78.654,316.828 80.750 C 317.394 83.474,317.687 84.408,318.339 85.577 C 318.829 86.456,319.307 88.111,319.759 90.500 C 320.051 92.044,320.571 93.671,320.821 93.826 C 321.178 94.046,321.679 95.629,321.922 97.302 C 322.269 99.691,322.538 100.624,323.431 102.519 C 324.007 103.742,324.301 104.686,324.675 106.512 C 325.269 109.418,325.372 109.747,326.188 111.344 C 326.798 112.540,326.904 112.929,327.686 116.865 C 328.191 119.405,328.241 119.417,339.000 119.417 C 350.531 119.417,349.765 119.802,350.978 113.389 C 351.193 112.252,351.543 111.157,352.044 110.056 C 352.830 108.329,353.081 107.422,353.249 105.698 C 353.409 104.068,353.935 102.244,354.747 100.505 C 355.358 99.197,355.564 98.487,355.914 96.482 C 356.303 94.255,356.895 92.279,357.329 91.755 C 357.645 91.374,358.162 89.637,358.516 87.766 C 359.092 84.725,359.430 83.474,359.987 82.333 C 360.348 81.594,360.651 80.536,360.939 79.000 C 361.465 76.203,361.684 75.464,362.535 73.601 C 363.030 72.520,363.343 71.461,363.695 69.684 C 364.326 66.501,364.430 66.132,365.082 64.750 C 365.433 64.006,365.763 62.888,365.991 61.667 C 366.660 58.085,366.842 57.419,367.587 55.826 C 368.143 54.636,368.438 53.689,368.754 52.076 C 369.385 48.858,369.613 48.071,370.418 46.333 C 371.133 44.790,371.833 41.863,371.833 40.416 C 371.833 39.902,372.469 38.140,372.908 37.437 C 373.282 36.839,373.641 35.529,374.172 32.833 C 374.583 30.750,374.837 29.911,375.487 28.500 C 376.236 26.872,376.603 25.523,376.935 23.167 C 377.281 20.719,380.053 19.137,385.579 18.233 C 389.190 17.643,389.235 17.615,390.250 15.302 C 390.637 14.422,390.667 14.166,390.667 11.713 L 390.667 9.070 389.715 8.494 L 388.763 7.917 370.384 7.873 L 352.006 7.829 351.336 8.434 L 350.667 9.039 350.667 11.740 C 350.667 14.468,351.013 16.296,351.684 17.104 C 351.977 17.457,353.752 17.944,355.847 18.247 C 359.407 18.760,360.326 19.126,361.174 20.368 C 362.081 21.695,362.139 21.929,361.807 22.912 C 361.648 23.383,361.324 24.852,361.086 26.176 C 360.598 28.902,360.485 29.320,359.832 30.833 C 359.331 31.994,358.830 34.067,358.402 36.750 C 358.250 37.703,357.921 38.916,357.634 39.583 C 356.603 41.982,356.452 42.477,355.979 45.000 C 355.382 48.182,355.124 49.095,354.424 50.490 C 353.775 51.784,353.405 53.311,353.189 55.588 C 353.036 57.202,352.656 58.491,351.862 60.087 C 351.443 60.930,351.094 62.282,350.744 64.417 C 350.345 66.847,350.041 67.935,349.420 69.160 C 348.703 70.573,348.596 70.948,348.079 73.833 C 347.808 75.346,347.312 77.248,346.753 78.917 C 346.219 80.508,345.750 82.289,345.588 83.333 C 345.208 85.787,344.897 86.917,344.256 88.167 C 343.590 89.468,343.442 89.992,342.926 92.884 C 342.481 95.371,342.285 96.177,341.895 97.110 L 341.628 97.748 341.147 97.172 C 340.883 96.855,340.667 96.542,340.667 96.475 C 340.667 96.409,340.220 95.731,339.674 94.969 C 338.615 93.491,338.234 92.429,337.832 89.833 C 337.516 87.796,337.039 86.046,336.430 84.690 C 335.765 83.209,335.449 82.055,335.081 79.766 C 334.704 77.416,334.265 75.679,333.837 74.840 C 333.327 73.841,333.073 72.916,332.669 70.583 C 332.211 67.942,331.908 66.775,331.393 65.667 C 330.638 64.044,330.335 62.978,329.920 60.489 C 329.538 58.195,329.058 56.513,328.568 55.750 C 328.311 55.350,327.990 53.962,327.352 50.494 C 327.090 49.069,326.678 47.438,326.438 46.869 C 326.197 46.299,325.819 45.402,325.597 44.875 C 325.376 44.348,325.036 42.942,324.842 41.750 C 324.413 39.117,324.144 38.130,323.407 36.487 C 322.755 35.032,322.272 33.096,321.999 30.833 C 321.751 28.778,321.579 28.119,320.990 26.971 C 318.128 21.382,319.582 19.404,327.394 18.255 C 332.624 17.486,333.167 16.874,333.167 11.747 C 333.167 8.829,333.197 8.908,331.798 8.163 C 331.033 7.755,290.098 7.644,289.400 8.048 C 289.207 8.159,288.813 8.451,288.525 8.698 L 288.000 9.145 288.004 11.781 C 288.010 16.894,288.635 17.674,293.250 18.334 C 296.482 18.796,297.573 19.327,299.915 21.583 C 301.448 23.060,301.553 28.233,300.115 31.439 C 299.357 33.128,299.090 34.106,298.675 36.699 C 298.355 38.705,297.892 40.258,297.240 41.519 C 297.079 41.829,296.854 42.608,296.739 43.250 C 296.625 43.892,296.370 45.317,296.174 46.417 C 295.735 48.881,295.509 49.661,294.868 50.931 C 294.248 52.160,294.093 52.729,293.574 55.688 C 293.167 58.005,292.804 59.244,291.933 61.286 C 291.423 62.481,290.927 64.738,290.684 66.969 C 290.550 68.197,290.376 68.824,289.850 69.969 C 289.075 71.658,288.815 72.602,288.274 75.670 C 288.054 76.923,287.675 78.403,287.422 79.003 C 286.405 81.414,286.133 82.332,285.740 84.694 C 285.514 86.053,285.140 87.671,284.909 88.291 C 284.093 90.481,283.681 91.942,283.268 94.118 C 282.333 99.044,281.938 99.244,280.488 95.529 C 280.106 94.551,279.605 93.377,279.375 92.920 C 278.656 91.496,278.316 90.308,278.155 88.649 C 277.951 86.564,277.497 84.825,276.686 83.024 C 276.058 81.629,275.906 81.039,275.187 77.218 C 274.981 76.125,274.628 74.997,274.196 74.052 C 273.413 72.338,273.300 71.942,272.750 68.975 C 272.270 66.389,271.850 64.846,271.369 63.902 C 270.939 63.060,270.593 61.723,270.252 59.587 C 269.923 57.522,269.590 56.348,268.997 55.167 C 268.374 53.925,268.068 52.835,267.571 50.094 C 267.136 47.698,266.632 45.937,266.256 45.500 C 265.956 45.152,265.720 44.332,265.414 42.583 C 264.648 38.200,264.438 37.389,263.665 35.833 C 263.081 34.658,262.764 33.512,262.420 31.333 C 262.051 28.995,261.756 27.970,261.062 26.616 C 260.517 25.550,259.845 23.107,259.837 22.158 C 259.821 20.229,262.519 18.938,268.000 18.254 C 272.073 17.745,272.277 17.648,273.415 15.696 L 274.161 14.417 274.164 11.731 L 274.167 9.046 273.042 8.481 L 271.917 7.917 249.667 7.879 C 233.617 7.852,227.324 7.893,227.083 8.026 " stroke="none" fill="#fc490c" fill-rule="evenodd"></path><path id="path2" d="M0.000 63.583 L 0.000 127.167 200.000 127.167 L 400.000 127.167 400.000 63.583 L 400.000 0.000 200.000 0.000 L 0.000 0.000 0.000 63.583 M170.000 6.836 C 172.091 7.017,177.086 7.695,179.330 8.102 C 180.386 8.294,181.239 8.605,182.708 9.333 C 183.788 9.870,185.054 10.435,185.520 10.590 C 186.082 10.777,186.640 11.143,187.179 11.679 C 187.626 12.123,188.237 12.613,188.537 12.766 C 189.474 13.246,190.534 14.068,190.668 14.420 C 190.738 14.605,191.011 14.866,191.273 15.000 C 191.535 15.133,192.175 15.563,192.695 15.954 L 193.641 16.666 194.324 15.875 C 194.700 15.440,195.137 14.708,195.295 14.250 C 195.454 13.792,195.835 12.929,196.142 12.333 C 196.449 11.737,196.802 10.779,196.926 10.204 C 197.393 8.035,197.497 8.002,203.953 8.001 L 209.322 8.000 209.911 8.517 L 210.500 9.035 210.500 26.004 L 210.500 42.974 209.950 43.695 L 209.400 44.417 204.052 44.461 C 196.290 44.524,196.240 44.493,195.082 38.788 C 194.538 36.109,194.342 35.560,193.440 34.191 C 193.038 33.582,192.614 32.783,192.498 32.417 C 192.102 31.173,191.504 29.965,190.996 29.386 C 190.717 29.069,190.263 28.408,189.985 27.916 C 189.708 27.425,188.885 26.417,188.157 25.677 C 187.429 24.937,186.833 24.268,186.833 24.190 C 186.833 24.113,186.308 23.700,185.667 23.273 C 185.025 22.846,184.500 22.429,184.500 22.345 C 184.500 22.039,183.628 21.167,183.323 21.167 C 182.775 21.167,180.456 20.162,179.668 19.584 C 178.404 18.657,177.720 18.473,173.750 17.999 C 166.722 17.159,158.673 17.965,156.680 19.708 C 156.154 20.168,154.185 21.167,153.803 21.167 C 153.712 21.167,153.240 21.560,152.754 22.042 C 152.268 22.523,151.479 23.292,151.002 23.750 C 149.173 25.507,148.339 26.449,147.828 27.333 C 147.537 27.837,147.044 28.562,146.734 28.943 C 146.406 29.346,145.904 30.359,145.534 31.365 C 145.156 32.393,144.623 33.465,144.220 34.006 C 143.522 34.943,143.202 35.755,142.760 37.708 C 142.620 38.326,142.091 39.669,141.586 40.691 C 140.987 41.903,140.667 42.759,140.666 43.150 C 140.666 44.206,139.704 49.523,139.186 51.333 C 137.619 56.810,137.653 68.844,139.253 75.073 C 139.791 77.169,140.322 80.244,140.643 83.121 C 140.769 84.258,140.940 84.786,141.642 86.205 C 142.153 87.238,142.624 88.506,142.833 89.405 C 143.260 91.249,143.589 92.005,144.473 93.170 C 144.854 93.673,145.316 94.534,145.499 95.084 C 145.683 95.634,146.114 96.542,146.458 97.101 C 148.068 99.717,148.455 100.277,148.976 100.746 C 149.906 101.583,150.729 102.433,151.121 102.960 C 151.325 103.235,151.850 103.628,152.288 103.833 C 152.725 104.039,153.533 104.551,154.083 104.971 C 155.200 105.823,156.157 106.189,158.539 106.675 C 159.431 106.856,160.699 107.199,161.355 107.436 C 164.647 108.623,170.639 108.803,174.188 107.821 C 174.864 107.634,176.836 107.122,178.570 106.684 C 181.159 106.029,181.831 105.797,182.320 105.388 C 182.648 105.114,183.142 104.747,183.417 104.572 C 185.251 103.403,186.354 102.339,187.402 100.730 C 187.648 100.352,188.180 99.697,188.585 99.275 C 189.163 98.672,189.398 98.244,189.675 97.295 C 190.197 95.503,190.763 93.852,191.163 92.957 C 191.900 91.306,192.330 86.970,192.325 81.250 C 192.320 75.939,192.262 75.835,189.018 75.341 C 186.257 74.920,185.742 74.785,184.134 74.064 C 183.429 73.748,182.306 73.351,181.638 73.181 C 180.621 72.923,180.334 72.768,179.866 72.228 L 179.308 71.583 179.363 68.583 C 179.420 65.437,179.563 64.814,180.462 63.792 C 180.704 63.517,181.921 63.500,201.600 63.500 L 222.481 63.500 223.640 63.930 C 225.366 64.569,225.667 65.301,225.667 68.860 C 225.667 72.017,225.604 72.125,223.250 73.055 C 222.425 73.381,221.101 73.915,220.308 74.243 C 219.295 74.660,218.130 74.963,216.398 75.256 C 213.796 75.697,213.277 75.904,212.951 76.634 C 212.799 76.975,212.739 82.034,212.703 97.580 L 212.655 118.077 212.227 118.524 C 211.337 119.453,201.747 119.788,200.490 118.935 C 199.750 118.431,198.271 115.499,197.834 113.667 C 197.670 112.979,197.370 111.710,197.169 110.846 C 196.670 108.707,196.495 108.458,195.694 108.740 C 195.356 108.860,194.745 109.014,194.338 109.083 C 193.362 109.248,193.089 109.430,192.404 110.377 C 192.089 110.814,191.469 111.394,191.027 111.666 C 190.585 111.938,189.927 112.487,189.563 112.886 C 189.200 113.285,188.369 113.893,187.716 114.235 C 187.064 114.578,186.242 115.101,185.890 115.397 C 184.778 116.332,184.285 116.611,182.917 117.080 C 182.183 117.332,181.133 117.780,180.583 118.076 C 178.819 119.026,177.422 119.314,169.500 120.361 C 167.674 120.603,162.537 120.605,160.500 120.366 C 152.079 119.378,150.134 119.017,147.900 118.028 C 147.066 117.659,145.941 117.235,145.400 117.086 C 143.612 116.593,142.926 116.297,142.016 115.620 C 141.076 114.921,139.396 114.006,139.048 114.002 C 138.937 114.001,138.374 113.561,137.798 113.025 C 137.221 112.489,136.538 111.999,136.280 111.936 C 135.172 111.665,128.282 104.539,127.353 102.703 C 127.134 102.271,126.534 101.460,126.019 100.901 C 125.322 100.144,124.964 99.567,124.614 98.634 C 124.354 97.942,123.846 97.023,123.478 96.577 C 122.560 95.467,121.842 93.771,121.835 92.702 C 121.833 92.281,121.395 91.351,120.752 90.403 C 120.254 89.670,119.801 88.165,119.425 85.997 C 119.274 85.125,118.925 83.775,118.650 82.997 C 117.362 79.359,117.138 77.908,116.820 71.167 C 116.335 60.846,116.927 51.933,118.395 47.486 C 118.801 46.256,119.363 44.058,119.643 42.602 C 120.108 40.187,120.213 39.865,120.829 38.948 C 121.200 38.395,121.573 37.674,121.656 37.346 C 121.740 37.018,121.967 36.112,122.161 35.333 C 122.361 34.530,122.709 33.640,122.965 33.278 C 123.989 31.830,124.509 30.892,124.839 29.900 C 125.087 29.155,125.446 28.562,126.083 27.848 C 126.603 27.266,127.257 26.259,127.641 25.451 C 128.041 24.609,128.478 23.944,128.746 23.768 C 128.990 23.608,129.481 23.016,129.838 22.451 C 130.195 21.887,130.765 21.235,131.105 21.004 C 131.445 20.773,132.067 20.149,132.487 19.618 C 132.907 19.087,133.522 18.471,133.855 18.250 C 134.188 18.029,134.732 17.479,135.062 17.029 C 135.505 16.425,135.981 16.043,136.871 15.575 C 137.535 15.226,138.314 14.691,138.602 14.385 C 138.897 14.073,139.812 13.509,140.692 13.098 C 141.553 12.696,142.630 12.057,143.087 11.679 C 143.658 11.206,144.281 10.886,145.083 10.652 C 147.191 10.040,147.907 9.792,148.667 9.413 C 150.173 8.662,152.065 8.199,155.087 7.843 C 156.735 7.649,159.017 7.375,160.157 7.233 C 164.324 6.717,167.262 6.598,170.000 6.836 M273.042 8.481 L 274.167 9.046 274.164 11.731 L 274.161 14.417 273.415 15.696 C 272.277 17.648,272.073 17.745,268.000 18.254 C 262.519 18.938,259.821 20.229,259.837 22.158 C 259.845 23.107,260.517 25.550,261.062 26.616 C 261.756 27.970,262.051 28.995,262.420 31.333 C 262.764 33.512,263.081 34.658,263.665 35.833 C 264.438 37.389,264.648 38.200,265.414 42.583 C 265.720 44.332,265.956 45.152,266.256 45.500 C 266.632 45.937,267.136 47.698,267.571 50.094 C 268.068 52.835,268.374 53.925,268.997 55.167 C 269.590 56.348,269.923 57.522,270.252 59.587 C 270.593 61.723,270.939 63.060,271.369 63.902 C 271.850 64.846,272.270 66.389,272.750 68.975 C 273.300 71.942,273.413 72.338,274.196 74.052 C 274.628 74.997,274.981 76.125,275.187 77.218 C 275.906 81.039,276.058 81.629,276.686 83.024 C 277.497 84.825,277.951 86.564,278.155 88.649 C 278.316 90.308,278.656 91.496,279.375 92.920 C 279.605 93.377,280.106 94.551,280.488 95.529 C 281.938 99.244,282.333 99.044,283.268 94.118 C 283.681 91.942,284.093 90.481,284.909 88.291 C 285.140 87.671,285.514 86.053,285.740 84.694 C 286.133 82.332,286.405 81.414,287.422 79.003 C 287.675 78.403,288.054 76.923,288.274 75.670 C 288.815 72.602,289.075 71.658,289.850 69.969 C 290.376 68.824,290.550 68.197,290.684 66.969 C 290.927 64.738,291.423 62.481,291.933 61.286 C 292.804 59.244,293.167 58.005,293.574 55.688 C 294.093 52.729,294.248 52.160,294.868 50.931 C 295.509 49.661,295.735 48.881,296.174 46.417 C 296.370 45.317,296.625 43.892,296.739 43.250 C 296.854 42.608,297.079 41.829,297.240 41.519 C 297.892 40.258,298.355 38.705,298.675 36.699 C 299.090 34.106,299.357 33.128,300.115 31.439 C 301.553 28.233,301.448 23.060,299.915 21.583 C 297.573 19.327,296.482 18.796,293.250 18.334 C 288.635 17.674,288.010 16.894,288.004 11.781 L 288.000 9.145 288.525 8.698 C 288.813 8.451,289.207 8.159,289.400 8.048 C 290.098 7.644,331.033 7.755,331.798 8.163 C 333.197 8.908,333.167 8.829,333.167 11.747 C 333.167 16.874,332.624 17.486,327.394 18.255 C 319.582 19.404,318.128 21.382,320.990 26.971 C 321.579 28.119,321.751 28.778,321.999 30.833 C 322.272 33.096,322.755 35.032,323.407 36.487 C 324.144 38.130,324.413 39.117,324.842 41.750 C 325.036 42.942,325.376 44.348,325.597 44.875 C 325.819 45.402,326.197 46.299,326.438 46.869 C 326.678 47.438,327.090 49.069,327.352 50.494 C 327.990 53.962,328.311 55.350,328.568 55.750 C 329.058 56.513,329.538 58.195,329.920 60.489 C 330.335 62.978,330.638 64.044,331.393 65.667 C 331.908 66.775,332.211 67.942,332.669 70.583 C 333.073 72.916,333.327 73.841,333.837 74.840 C 334.265 75.679,334.704 77.416,335.081 79.766 C 335.449 82.055,335.765 83.209,336.430 84.690 C 337.039 86.046,337.516 87.796,337.832 89.833 C 338.234 92.429,338.615 93.491,339.674 94.969 C 340.220 95.731,340.667 96.409,340.667 96.475 C 340.667 96.542,340.883 96.855,341.147 97.172 L 341.628 97.748 341.895 97.110 C 342.285 96.177,342.481 95.371,342.926 92.884 C 343.442 89.992,343.590 89.468,344.256 88.167 C 344.897 86.917,345.208 85.787,345.588 83.333 C 345.750 82.289,346.219 80.508,346.753 78.917 C 347.312 77.248,347.808 75.346,348.079 73.833 C 348.596 70.948,348.703 70.573,349.420 69.160 C 350.041 67.935,350.345 66.847,350.744 64.417 C 351.094 62.282,351.443 60.930,351.862 60.087 C 352.656 58.491,353.036 57.202,353.189 55.588 C 353.405 53.311,353.775 51.784,354.424 50.490 C 355.124 49.095,355.382 48.182,355.979 45.000 C 356.452 42.477,356.603 41.982,357.634 39.583 C 357.921 38.916,358.250 37.703,358.402 36.750 C 358.830 34.067,359.331 31.994,359.832 30.833 C 360.485 29.320,360.598 28.902,361.086 26.176 C 361.324 24.852,361.648 23.383,361.807 22.912 C 362.139 21.929,362.081 21.695,361.174 20.368 C 360.326 19.126,359.407 18.760,355.847 18.247 C 353.752 17.944,351.977 17.457,351.684 17.104 C 351.013 16.296,350.667 14.468,350.667 11.740 L 350.667 9.039 351.336 8.434 L 352.006 7.829 370.384 7.873 L 388.763 7.917 389.715 8.494 L 390.667 9.070 390.667 11.713 C 390.667 14.166,390.637 14.422,390.250 15.302 C 389.235 17.615,389.190 17.643,385.579 18.233 C 380.053 19.137,377.281 20.719,376.935 23.167 C 376.603 25.523,376.236 26.872,375.487 28.500 C 374.837 29.911,374.583 30.750,374.172 32.833 C 373.641 35.529,373.282 36.839,372.908 37.437 C 372.469 38.140,371.833 39.902,371.833 40.416 C 371.833 41.863,371.133 44.790,370.418 46.333 C 369.613 48.071,369.385 48.858,368.754 52.076 C 368.438 53.689,368.143 54.636,367.587 55.826 C 366.842 57.419,366.660 58.085,365.991 61.667 C 365.763 62.888,365.433 64.006,365.082 64.750 C 364.430 66.132,364.326 66.501,363.695 69.684 C 363.343 71.461,363.030 72.520,362.535 73.601 C 361.684 75.464,361.465 76.203,360.939 79.000 C 360.651 80.536,360.348 81.594,359.987 82.333 C 359.430 83.474,359.092 84.725,358.516 87.766 C 358.162 89.637,357.645 91.374,357.329 91.755 C 356.895 92.279,356.303 94.255,355.914 96.482 C 355.564 98.487,355.358 99.197,354.747 100.505 C 353.935 102.244,353.409 104.068,353.249 105.698 C 353.081 107.422,352.830 108.329,352.044 110.056 C 351.543 111.157,351.193 112.252,350.978 113.389 C 349.765 119.802,350.531 119.417,339.000 119.417 C 328.241 119.417,328.191 119.405,327.686 116.865 C 326.904 112.929,326.798 112.540,326.188 111.344 C 325.372 109.747,325.269 109.418,324.675 106.512 C 324.301 104.686,324.007 103.742,323.431 102.519 C 322.538 100.624,322.269 99.691,321.922 97.302 C 321.679 95.629,321.178 94.046,320.821 93.826 C 320.571 93.671,320.051 92.044,319.759 90.500 C 319.307 88.111,318.829 86.456,318.339 85.577 C 317.687 84.408,317.394 83.474,316.828 80.750 C 316.392 78.654,315.703 76.538,315.150 75.597 C 315.046 75.421,314.717 74.063,314.418 72.579 C 313.967 70.338,313.744 69.615,313.101 68.312 C 312.463 67.018,312.224 66.248,311.735 63.913 C 311.325 61.952,310.986 60.776,310.631 60.083 C 310.350 59.533,309.755 58.363,309.309 57.483 C 307.708 54.325,307.466 54.584,306.341 60.661 C 306.088 62.025,305.802 62.956,305.340 63.911 C 304.600 65.446,304.453 65.944,303.997 68.479 C 303.533 71.052,303.088 72.847,302.751 73.498 C 302.200 74.564,301.838 75.880,301.407 78.390 C 301.045 80.499,300.839 81.222,300.161 82.764 C 299.493 84.281,299.257 85.101,298.838 87.347 C 298.287 90.304,298.005 91.315,297.392 92.540 C 296.966 93.391,296.713 94.451,296.187 97.586 C 295.978 98.833,295.650 100.061,295.320 100.836 C 294.385 103.037,294.023 104.220,293.663 106.257 C 293.164 109.083,292.890 110.063,292.234 111.364 C 291.607 112.610,291.141 114.390,290.813 116.793 C 290.447 119.478,290.360 119.498,279.288 119.499 C 268.569 119.500,268.642 119.533,267.587 114.213 C 267.277 112.651,266.968 111.661,266.427 110.500 C 266.021 109.629,265.575 108.392,265.436 107.750 C 265.297 107.108,265.028 105.876,264.838 105.011 C 264.644 104.132,264.233 102.931,263.904 102.285 C 263.066 100.641,262.740 99.669,262.327 97.583 C 261.916 95.506,261.578 94.524,260.965 93.631 C 260.490 92.940,259.991 91.209,259.582 88.833 C 259.387 87.698,259.105 86.825,258.587 85.750 C 257.793 84.102,257.702 83.809,257.104 80.976 C 256.800 79.530,256.479 78.592,255.849 77.299 C 255.187 75.939,254.912 75.113,254.584 73.489 C 254.125 71.222,253.786 70.087,253.449 69.680 C 253.103 69.264,252.368 66.892,252.077 65.250 C 251.774 63.538,251.430 62.521,250.606 60.893 C 249.967 59.630,249.864 59.287,249.274 56.490 C 248.964 55.019,248.666 54.161,248.017 52.868 C 247.393 51.623,247.120 50.851,246.989 49.961 C 246.653 47.662,246.360 46.384,246.020 45.735 C 245.022 43.824,244.810 43.284,244.494 41.833 C 243.895 39.080,243.491 37.780,242.911 36.735 C 242.335 35.698,241.881 34.250,241.416 31.960 C 241.066 30.237,240.636 28.926,240.022 27.709 C 239.686 27.045,239.364 25.946,239.075 24.477 C 238.650 22.323,238.194 21.167,237.767 21.167 C 237.654 21.167,237.042 20.818,236.406 20.391 C 234.187 18.902,234.053 18.853,230.493 18.249 C 226.249 17.529,225.833 16.956,225.833 11.838 L 225.833 9.062 226.292 8.637 C 226.544 8.403,226.900 8.128,227.083 8.026 C 227.324 7.893,233.617 7.852,249.667 7.879 L 271.917 7.917 273.042 8.481 M105.822 8.573 L 106.333 9.062 106.332 24.823 L 106.330 40.583 105.836 41.446 C 105.222 42.515,104.892 42.583,100.333 42.583 L 97.250 42.583 96.686 41.517 C 96.335 40.853,96.009 39.876,95.824 38.933 C 95.661 38.099,95.191 36.404,94.780 35.167 C 94.192 33.397,93.956 32.329,93.671 30.167 C 93.091 25.751,92.182 22.375,91.280 21.285 C 91.080 21.044,90.669 20.543,90.366 20.173 L 89.815 19.500 80.782 19.500 C 69.150 19.501,68.930 19.531,68.087 21.275 C 67.862 21.741,67.833 26.519,67.833 63.660 L 67.833 105.519 68.366 106.006 C 68.674 106.287,69.502 106.700,70.325 106.984 C 71.109 107.255,72.226 107.675,72.808 107.918 C 73.899 108.374,75.550 108.716,79.576 109.321 C 82.437 109.751,82.693 109.903,83.650 111.735 L 84.355 113.083 84.303 115.660 L 84.250 118.236 83.430 118.743 L 82.609 119.250 57.566 119.250 L 32.522 119.250 32.011 118.760 L 31.500 118.271 31.500 115.390 C 31.500 110.581,32.081 109.894,36.693 109.253 C 40.663 108.701,41.406 108.524,44.633 107.360 C 46.122 106.823,46.300 106.717,47.125 105.881 L 47.667 105.333 47.667 63.655 C 47.667 32.879,47.617 21.886,47.477 21.625 C 47.213 21.130,47.009 20.876,46.285 20.141 L 45.653 19.500 36.629 19.500 C 23.857 19.500,23.807 19.517,23.339 24.083 C 23.138 26.038,22.696 28.172,22.182 29.667 C 21.723 31.001,21.209 33.605,20.914 36.083 C 20.366 40.690,20.230 41.003,18.342 41.986 L 17.032 42.667 14.372 42.667 C 11.345 42.667,11.220 42.621,10.311 41.187 L 9.833 40.435 9.833 24.733 L 9.833 9.031 10.614 8.514 L 11.395 7.997 58.353 8.040 L 105.311 8.083 105.822 8.573 " stroke="none" fill="none"></path></g></svg>